<svg width="303" height="337" viewBox="0 0 303 337" fill="none" xmlns="http://www.w3.org/2000/svg">
<path d="M151.353 70.9412C179.729 70.9412 186.824 56.753 202.182 49.6589C217.541 42.5648 241.2 42.5648 262.482 52.0354C283.765 61.506 302.67 80.4118 302.67 130.071C302.67 179.729 283.765 260.141 260.106 300.329C236.447 340.518 208.106 340.518 190.371 333.423C172.635 326.329 165.541 312.141 151.353 312.141C137.165 312.141 130.071 326.329 112.335 333.423C94.6001 340.518 66.2236 340.518 42.5647 300.329C18.9058 260.141 0 179.729 0 130.071C0 80.4118 18.9059 61.506 40.1882 52.0354C61.4706 42.5648 85.1294 42.5648 100.488 49.6589C115.847 56.753 122.977 70.9412 151.353 70.9412Z" fill="#FFA90A"/>
<path d="M151.353 106.412C156.463 106.432 161.565 106.016 166.605 105.17C171.069 104.396 175.45 103.209 179.694 101.623C184.042 100.244 187.794 97.4307 190.335 93.6425C193.173 89.5988 195.904 83.356 198.564 79.4542C200.535 76.4061 203.15 73.8271 206.226 71.899C207.542 70.9825 208.916 70.153 210.34 69.416C212.993 68.1518 215.811 67.2682 218.711 66.7912C223.076 66.0163 227.521 65.7899 231.942 66.1173C237.038 66.486 242.074 67.4502 246.946 68.9904C250.625 70.1294 254.188 71.6139 257.587 73.4242C259.754 74.5841 261.818 75.9249 263.759 77.4324C265.677 78.9404 267.436 80.6399 269.009 82.5047C270.775 84.629 272.308 86.9359 273.584 89.386C275.195 92.4924 276.502 95.7471 277.486 99.1049C278.79 103.537 279.727 108.069 280.288 112.655C281.046 118.82 281.39 125.03 281.317 131.241C281.317 138.903 280.749 146.529 280.005 154.155C279.118 162.916 277.912 171.678 276.457 180.368C273.951 195.266 270.723 210.021 266.774 224.635C264.398 233.432 261.737 242.193 258.758 250.813C256.062 258.616 253.082 266.349 249.748 273.904C247.05 280.017 243.946 285.942 240.455 291.639C237.883 295.864 234.927 299.842 231.623 303.522C229.264 306.18 226.611 308.56 223.713 310.616C221.611 312.077 219.335 313.268 216.938 314.163C213.275 315.544 209.329 316.007 205.445 315.511C203.637 315.298 201.855 314.906 200.125 314.34C197.471 313.471 194.934 312.28 192.57 310.793C190.973 309.765 189.448 308.665 187.923 307.495C185.582 305.721 183.276 303.947 180.829 302.103C178.491 300.33 176.051 298.696 173.522 297.208C170.388 295.382 167.056 293.918 163.59 292.845C155.512 290.286 146.839 290.286 138.761 292.845C135.295 293.917 131.963 295.38 128.829 297.208C126.298 298.693 123.858 300.328 121.522 302.103C119.146 303.877 116.875 305.65 114.428 307.495C112.903 308.63 111.377 309.765 109.746 310.793C107.383 312.281 104.845 313.473 102.191 314.34C100.46 314.905 98.6779 315.297 96.8701 315.511C92.9867 316.011 89.0398 315.548 85.3775 314.163C82.9824 313.263 80.707 312.072 78.6026 310.616C75.7052 308.559 73.0515 306.179 70.6928 303.522C67.3913 299.84 64.4347 295.862 61.8605 291.639C58.3686 285.943 55.2638 280.017 52.5673 273.904C49.1976 266.349 46.218 258.652 43.5577 250.813C40.5782 242.193 37.918 233.432 35.5414 224.635C31.5924 210.045 28.3645 195.289 25.8579 180.368C24.4036 171.678 23.1622 162.916 22.3109 154.155C21.5305 146.529 21.034 138.903 20.9985 131.241C20.9217 125.03 21.2654 118.82 22.0272 112.655C22.5886 108.069 23.5257 103.537 24.8293 99.1049C25.8221 95.7448 27.1409 92.4897 28.7666 89.386C30.045 86.9374 31.5788 84.6308 33.3423 82.5047C34.9169 80.6414 36.6756 78.942 38.5919 77.4324C40.585 75.8795 42.7095 74.5027 44.9411 73.3178C48.3384 71.5034 51.9018 70.0187 55.5823 68.884C60.4531 67.339 65.4894 66.3747 70.5864 66.0109C75.0191 65.6779 79.4761 65.9043 83.8523 66.6848C85.6082 66.9957 87.339 67.4343 89.031 67.9972C90.1221 68.366 91.1884 68.8043 92.2233 69.3096C93.6487 70.0445 95.0234 70.874 96.3379 71.7926C99.4134 73.7207 102.029 76.2996 104 79.3478C106.66 83.4269 109.391 89.6697 112.229 93.536C114.77 97.3243 118.522 100.138 122.87 101.517C127.113 103.103 131.495 104.29 135.959 105.064C141.042 105.953 146.192 106.404 151.353 106.412Z" fill="#D68B00"/>
<path d="M151.353 78.0353C179.73 78.0353 201.012 95.7706 204.559 122.373C208.106 148.976 193.918 184.447 151.353 184.447C108.789 184.447 94.6003 148.976 98.1474 122.373C101.694 95.7706 122.977 78.0353 151.353 78.0353Z" fill="#FFCD70"/>
<path d="M165.541 79.6314C156.199 77.5257 146.506 77.5257 137.164 79.6314C137.164 26.4256 139.044 0 193.917 0V28.3765C166.782 28.3765 165.541 41.3232 165.541 79.6314Z" fill="#FFBB3D"/>
<path d="M110.136 166.889C118.756 177.353 132.164 184.447 151.353 184.447C170.543 184.447 183.951 177.353 192.57 166.889C210.66 200.444 202.821 240.171 166.428 293.696L163.697 292.774C155.618 290.215 146.946 290.215 138.867 292.774L136.136 293.696C99.8853 240.171 92.0108 200.444 110.136 166.889Z" fill="#A36A00"/>
</svg>
