<svg width="330" height="370" viewBox="0 0 330 370" fill="none" xmlns="http://www.w3.org/2000/svg">
<path d="M152.798 74.5203C138.309 74.999 124.883 79.6838 113.511 87.412C101.911 80.8236 88.5989 77.7232 74.8184 79.319L60.1473 81.0174C54.5072 81.6671 49.1183 83.0691 44.0491 85.1209C46.4353 82.7956 49.0155 80.6755 51.7671 78.7605C73.7794 63.4751 104.48 62.3239 129.906 65.8802C137.499 66.9403 145.103 69.1174 151.519 73.5514C151.839 73.768 152.273 74.0985 152.798 74.5203Z" fill="#EF8C45"/>
<path d="M286.618 86.5229C282.417 84.8018 277.976 83.5479 273.329 82.7842L258.76 80.402C243.461 77.8943 228.482 81.2796 215.615 88.9508C205.191 81.3138 192.883 76.3099 179.537 74.8965C179.069 74.8509 178.6 74.8053 178.132 74.7597C188.465 67.6243 202.04 65.9259 215.272 65.7891C225.925 65.6751 237.205 66.0057 248.085 67.9434C260.245 70.1091 271.924 74.2924 281.709 82.1231C283.433 83.5023 285.066 84.9727 286.618 86.5229Z" fill="#EF8C45"/>
<path d="M286.618 86.5229C282.417 84.8017 277.976 83.5479 273.329 82.7842L258.761 80.4019C243.462 77.8942 228.482 81.2796 215.615 88.9508C205.191 81.3138 192.883 76.3098 179.537 74.8964C179.069 74.8508 178.601 74.8052 178.132 74.7596C176.032 74.5773 173.897 74.4861 171.75 74.4861H155.23C154.933 74.4861 154.636 74.4861 154.339 74.4975C153.825 74.4975 153.312 74.5089 152.798 74.5203C138.309 74.999 124.883 79.6838 113.511 87.412C101.911 80.8236 88.5989 77.7233 74.8184 79.319L60.1473 81.0174C54.5072 81.6671 49.1183 83.0691 44.0491 85.1209C16.1341 96.394 -2.04205 127.329 0.309888 161.502C0.515397 164.557 0.880747 167.634 1.42877 170.723L23.3383 295.366C30.3827 335.454 63.8693 363.381 99.8905 359.22C106.421 358.468 112.621 356.69 118.386 354.057C131.094 363.745 146.69 369.445 163.484 369.445C171.59 369.445 179.423 368.111 186.775 365.649C194.128 363.187 201.024 359.596 207.258 355.06C211.482 356.781 215.935 358.058 220.593 358.821C256.374 364.657 291.14 338.327 300.057 298.614L327.777 175.135C328.474 172.069 328.976 169.014 329.33 165.97C333.406 130.886 315.515 98.2177 286.618 86.5229Z" fill="#FFBB0E"/>
<path d="M205.454 10.4723C196.343 20.7081 178.304 45.1578 179.537 74.8965C176.979 74.6229 174.376 74.4861 171.75 74.4861H155.23C154.933 74.4861 154.636 74.4861 154.339 74.4975C157.799 57.0123 163.416 40.0399 173.132 24.9369C177.482 18.1776 182.585 11.8629 188.522 6.43719C190.611 4.52224 192.826 2.73268 195.144 1.0913C196.731 -0.0257518 198.798 -0.208128 200.556 0.623962L203.718 2.12856C205.694 3.06324 206.79 5.00098 206.79 6.97292C206.79 8.20395 206.367 9.44639 205.454 10.4723Z" fill="#EF8C45"/>
<path d="M259.971 99.9503L247.195 97.8644C233.78 95.6759 220.65 98.6395 209.37 105.353C198.478 97.3857 185.257 92.6781 170.917 92.6781H156.428C142.91 92.6781 130.374 96.8499 119.859 104.008C109.686 98.2292 98.0181 95.5163 85.9273 96.9183L73.0716 98.4115C40.8523 102.15 18.1778 133.576 20.6096 168.968C20.7923 171.647 21.112 174.348 21.5915 177.05L40.7952 286.316C46.9719 321.457 76.3255 345.941 107.905 342.293C113.625 341.632 119.06 340.071 124.129 337.768C135.272 346.26 148.939 351.264 163.667 351.264C177.881 351.264 191.114 346.613 202.029 338.646C205.739 340.162 209.644 341.279 213.72 341.952C245.094 347.069 275.567 323.988 283.376 289.165L307.683 180.914C308.288 178.235 308.734 175.556 309.042 172.889C313.129 137.645 291.962 105.194 259.948 99.9617L259.971 99.9503Z" fill="#FFE55F"/>
<path d="M282.466 169.922C280.914 161.236 276.484 153.246 270.855 146.429C263.628 137.675 254.152 130.985 243.831 127.485C230.986 123.131 216.852 123.735 204.144 131.509C190.25 140.012 183.388 153.269 164.938 152.414C146.488 153.269 139.626 140.012 125.731 131.509C113.024 123.735 98.8894 123.131 86.0451 127.485C75.724 130.985 66.2477 137.675 59.0206 146.429C53.3919 153.246 48.9621 161.236 47.4094 169.922C44.4409 186.552 49.9896 204.311 54.3624 220.189C58.838 236.455 61.795 253.062 66.1335 269.374C72.4701 293.139 89.1962 317.771 116.769 316.563C133.815 315.8 147.858 306.099 164.938 306.521C182.018 306.099 196.061 315.8 213.107 316.563C240.679 317.771 257.406 293.139 263.742 269.374C268.081 253.062 271.038 236.455 275.513 220.189C279.886 204.311 285.435 186.552 282.466 169.922Z" fill="#FFBB0E"/>
<path fill-rule="evenodd" clip-rule="evenodd" d="M144.284 256.379C144.284 254.176 146.073 252.39 148.28 252.39H180.202C182.409 252.39 184.198 254.176 184.198 256.379C184.198 258.583 182.409 260.369 180.202 260.369H148.28C146.073 260.369 144.284 258.583 144.284 256.379Z" fill="#EF8C45"/>
<path d="M138.61 204.493H152.733C153.943 208.449 154.605 212.803 154.605 217.385C154.605 235.383 144.33 249.962 131.657 249.962C118.983 249.962 108.708 235.383 108.708 217.385C108.708 212.803 109.37 208.449 110.58 204.493H126.884" fill="white"/>
<path d="M141.818 217.385C141.818 226.743 137.753 234.312 132.741 234.312C127.729 234.312 123.676 226.743 123.676 217.385C123.676 212.21 124.92 207.594 126.884 204.493H138.609C140.573 207.594 141.818 212.21 141.818 217.385Z" fill="#EF8C45"/>
<path fill-rule="evenodd" clip-rule="evenodd" d="M106.584 204.493C106.584 202.29 108.373 200.504 110.58 200.504H152.732C154.939 200.504 156.729 202.29 156.729 204.493C156.729 206.697 154.939 208.483 152.732 208.483H110.58C108.373 208.483 106.584 206.697 106.584 204.493Z" fill="#EF8C45"/>
<path d="M203.768 204.493H217.891C219.101 208.449 219.763 212.803 219.763 217.385C219.763 235.383 209.488 249.962 196.814 249.962C184.141 249.962 173.866 235.383 173.866 217.385C173.866 212.803 174.528 208.449 175.738 204.493H192.042" fill="white"/>
<path d="M206.976 217.385C206.976 226.743 202.911 234.312 197.899 234.312C192.887 234.312 188.834 226.743 188.834 217.385C188.834 212.21 190.078 207.594 192.042 204.493H203.768C205.731 207.594 206.976 212.21 206.976 217.385Z" fill="#EF8C45"/>
<path fill-rule="evenodd" clip-rule="evenodd" d="M171.742 204.493C171.742 202.29 173.532 200.504 175.738 200.504H217.891C220.098 200.504 221.887 202.29 221.887 204.493C221.887 206.697 220.098 208.483 217.891 208.483H175.738C173.532 208.483 171.742 206.697 171.742 204.493Z" fill="#EF8C45"/>
</svg>
