<svg width="304" height="337" viewBox="0 0 304 337" fill="none" xmlns="http://www.w3.org/2000/svg">
<path d="M152.343 70.9411C180.72 70.9411 187.814 56.7529 203.172 49.6588C218.531 42.5647 242.19 42.5647 263.472 52.0353C284.755 61.506 303.661 80.4118 303.661 130.071C303.661 179.729 284.755 260.141 261.096 300.329C237.437 340.517 209.096 340.517 191.361 333.423C173.626 326.329 166.531 312.141 152.343 312.141C138.155 312.141 131.061 326.329 113.326 333.423C95.5903 340.517 67.2138 340.517 43.5549 300.329C19.896 260.141 0.990234 179.729 0.990234 130.071C0.990234 80.4118 19.8961 61.506 41.1785 52.0353C62.4608 42.5647 86.1197 42.5647 101.478 49.6588C116.837 56.7529 123.967 70.9411 152.343 70.9411Z" fill="#7EB830"/>
<path d="M152.343 106.412C157.453 106.432 162.556 106.016 167.595 105.17C172.059 104.396 176.441 103.209 180.684 101.623C185.032 100.244 188.784 97.4306 191.325 93.6424C194.163 89.5988 196.894 83.3559 199.554 79.4542C201.525 76.406 204.141 73.827 207.216 71.8989C208.532 70.9824 209.906 70.153 211.331 69.416C213.984 68.1518 216.802 67.2681 219.702 66.7912C224.066 66.0162 228.511 65.7898 232.932 66.1172C238.029 66.4859 243.064 67.4502 247.936 68.9903C251.615 70.1293 255.178 71.6139 258.577 73.4242C260.744 74.584 262.809 75.9249 264.749 77.4323C266.667 78.9403 268.426 80.6399 269.999 82.5046C271.765 84.629 273.299 86.9358 274.575 89.3859C276.185 92.4923 277.492 95.7471 278.476 99.1049C279.78 103.537 280.717 108.069 281.279 112.655C282.037 118.82 282.38 125.03 282.307 131.241C282.307 138.903 281.74 146.529 280.995 154.155C280.108 162.916 278.902 171.678 277.448 180.368C274.941 195.266 271.713 210.021 267.764 224.635C265.388 233.432 262.727 242.193 259.748 250.812C257.052 258.616 254.073 266.349 250.738 273.904C248.041 280.017 244.936 285.942 241.445 291.639C238.873 295.864 235.917 299.841 232.613 303.522C230.255 306.18 227.601 308.56 224.703 310.616C222.602 312.076 220.326 313.268 217.928 314.163C214.265 315.544 210.319 316.006 206.436 315.511C204.628 315.298 202.845 314.906 201.115 314.34C198.461 313.471 195.924 312.28 193.56 310.793C191.964 309.765 190.438 308.665 188.913 307.494C186.572 305.721 184.267 303.947 181.819 302.103C179.481 300.33 177.041 298.696 174.512 297.208C171.378 295.382 168.046 293.918 164.58 292.845C156.502 290.286 147.83 290.286 139.751 292.845C136.285 293.917 132.953 295.38 129.819 297.208C127.288 298.693 124.848 300.328 122.512 302.103C120.136 303.876 117.866 305.65 115.418 307.494C113.893 308.63 112.368 309.765 110.736 310.793C108.373 312.281 105.835 313.473 103.181 314.34C101.45 314.905 99.6681 315.297 97.8603 315.511C93.9769 316.011 90.0301 315.548 86.3678 314.163C83.9726 313.263 81.6973 312.071 79.5929 310.616C76.6954 308.559 74.0417 306.179 71.683 303.522C68.3815 299.84 65.425 295.862 62.8508 291.639C59.3588 285.942 56.254 280.017 53.5575 273.904C50.1878 266.349 47.2082 258.651 44.548 250.812C41.5684 242.193 38.9082 233.432 36.5317 224.635C32.5826 210.045 29.3548 195.289 26.8482 180.368C25.3939 171.678 24.1524 162.916 23.3011 154.155C22.5208 146.529 22.0242 138.903 21.9887 131.241C21.912 125.03 22.2557 118.82 23.0174 112.655C23.5788 108.069 24.5159 103.537 25.8195 99.1049C26.8124 95.7448 28.1311 92.4897 29.7568 89.3859C31.0353 86.9373 32.5691 84.6307 34.3325 82.5046C35.9071 80.6414 37.6658 78.942 39.5821 77.4323C41.5753 75.8794 43.6997 74.5027 45.9314 73.3177C49.3287 71.5034 52.892 70.0186 56.5725 68.8839C61.4434 67.339 66.4796 66.3746 71.5766 66.0108C76.0094 65.6778 80.4664 65.9042 84.8426 66.6848C86.5984 66.9956 88.3292 67.4343 90.0212 67.9972C91.1123 68.3659 92.1786 68.8043 93.2136 69.3096C94.639 70.0445 96.0136 70.874 97.3282 71.7925C100.404 73.7206 103.019 76.2996 104.99 79.3477C107.65 83.4269 110.381 89.6697 113.219 93.536C115.76 97.3242 119.512 100.138 123.86 101.517C128.104 103.103 132.485 104.29 136.949 105.064C142.032 105.953 147.183 106.404 152.343 106.412Z" fill="#558827"/>
<path d="M152.343 78.0353C180.72 78.0353 202.002 95.7706 205.549 122.373C209.096 148.976 194.908 184.447 152.343 184.447C109.779 184.447 95.5905 148.976 99.1376 122.373C102.685 95.7706 123.967 78.0353 152.343 78.0353Z" fill="#DBE5C6"/>
<path d="M166.531 79.6314C157.189 77.5257 147.496 77.5257 138.155 79.6314C138.155 26.4256 140.035 0 194.908 0V28.3765C167.773 28.3765 166.531 41.3232 166.531 79.6314Z" fill="#A3C97A"/>
<path d="M111.127 166.889C119.746 177.353 133.154 184.447 152.343 184.447C171.533 184.447 184.941 177.353 193.56 166.889C211.65 200.444 203.811 240.171 167.418 293.696L164.687 292.774C156.608 290.215 147.936 290.215 139.858 292.774L137.126 293.696C100.875 240.171 93.0011 200.444 111.127 166.889Z" fill="#527229"/>
</svg>
