<svg width="402" height="451" viewBox="0 0 402 451" fill="none" xmlns="http://www.w3.org/2000/svg">
<path d="M186.119 90.7044C168.459 91.2879 152.093 96.9983 138.232 106.418C124.093 98.3877 107.866 94.6086 91.0687 96.5537L73.1859 98.6239C66.3111 99.4158 59.7425 101.125 53.5635 103.626C56.472 100.791 59.6172 98.2071 62.9711 95.8729C89.8023 77.2413 127.224 75.838 158.216 80.1729C167.471 81.465 176.739 84.1187 184.56 89.5234C184.95 89.7874 185.479 90.1903 186.119 90.7044Z" fill="#357C3D"/>
<path d="M349.235 105.335C344.114 103.237 338.7 101.708 333.036 100.777L315.279 97.8736C296.631 94.817 278.372 98.9434 262.688 108.294C249.982 98.9851 234.98 92.8857 218.712 91.1629C218.141 91.1073 217.57 91.0518 217 90.9962C229.594 82.2986 246.141 80.2285 262.27 80.0617C275.255 79.9228 289.004 80.3257 302.267 82.6877C317.088 85.3275 331.325 90.4265 343.251 99.9716C345.353 101.653 347.343 103.445 349.235 105.335V105.335Z" fill="#357C3D"/>
<path d="M349.236 105.335C344.114 103.237 338.701 101.708 333.037 100.777L315.279 97.8736C296.631 94.817 278.372 98.9434 262.688 108.294C249.982 98.9851 234.98 92.8857 218.712 91.1629C218.141 91.1073 217.571 91.0517 217 90.9962C214.439 90.7739 211.837 90.6627 209.221 90.6627H189.083C188.721 90.6627 188.36 90.6627 187.998 90.6766C187.372 90.6766 186.745 90.6905 186.119 90.7044C168.459 91.2879 152.093 96.9983 138.232 106.418C124.093 98.3877 107.866 94.6086 91.0686 96.5537L73.1858 98.6239C66.311 99.4158 59.7424 101.125 53.5634 103.626C19.5373 117.367 -2.61795 155.074 0.248872 196.728C0.499371 200.452 0.944703 204.203 1.6127 207.968L28.3187 359.897C36.9052 408.762 77.7226 442.801 121.63 437.73C129.59 436.813 137.147 434.646 144.174 431.436C159.664 443.246 178.674 450.193 199.145 450.193C209.026 450.193 218.573 448.567 227.535 445.566C236.497 442.565 244.903 438.189 252.501 432.659C257.65 434.757 263.078 436.313 268.756 437.244C312.37 444.358 354.747 412.263 365.615 363.857L399.405 213.345C400.254 209.608 400.866 205.884 401.298 202.174C406.266 159.409 384.458 119.59 349.236 105.335V105.335Z" fill="#4EAF5D"/>
<path d="M250.302 12.6351C239.197 25.1117 217.209 54.9139 218.712 91.1629C215.594 90.8295 212.421 90.6627 209.221 90.6627H189.083C188.721 90.6627 188.36 90.6627 187.998 90.6766C192.215 69.3635 199.062 48.6756 210.905 30.2663C216.207 22.0273 222.427 14.3301 229.664 7.71666C232.211 5.3825 234.911 3.20117 237.736 1.20046C239.67 -0.161137 242.189 -0.383439 244.332 0.63081L248.187 2.46479C250.595 3.60409 251.931 5.96604 251.931 8.36967C251.931 9.8702 251.416 11.3846 250.302 12.6351V12.6351Z" fill="#357C3D"/>
<path d="M316.754 121.702L301.181 119.159C284.829 116.491 268.825 120.104 255.076 128.287C241.799 118.575 225.684 112.837 208.205 112.837H190.544C174.067 112.837 158.787 117.922 145.969 126.648C133.57 119.604 119.347 116.297 104.609 118.006L88.9392 119.826C49.6666 124.383 22.0282 162.688 24.9924 205.829C25.2151 209.094 25.6048 212.386 26.1893 215.679L49.597 348.865C57.1259 391.7 92.9055 421.544 131.399 417.098C138.371 416.292 144.995 414.389 151.174 411.582C164.757 421.933 181.415 428.032 199.367 428.032C216.694 428.032 232.823 422.364 246.127 412.652C250.65 414.5 255.41 415.861 260.378 416.681C298.621 422.919 335.764 394.785 345.283 352.339L374.912 220.389C375.649 217.124 376.192 213.859 376.568 210.608C381.55 167.648 355.748 128.093 316.726 121.715L316.754 121.702Z" fill="#A7DBAA"/>
<path d="M344.174 206.991C342.282 196.404 336.882 186.664 330.021 178.356C321.212 167.685 309.661 159.53 297.081 155.264C281.424 149.957 264.196 150.693 248.706 160.169C231.77 170.533 223.406 186.692 200.917 185.65C178.428 186.692 170.064 170.533 153.127 160.169C137.638 150.693 120.409 149.957 104.753 155.264C92.1724 159.53 80.6216 167.685 71.8124 178.356C64.9515 186.664 59.5519 196.404 57.6592 206.991C54.0409 227.262 60.8044 248.908 66.1344 268.263C71.5897 288.089 75.1941 308.332 80.4825 328.214C88.2062 357.183 108.594 387.208 142.203 385.735C162.98 384.804 180.098 372.98 200.917 373.494C221.736 372.98 238.853 384.804 259.631 385.735C293.24 387.208 313.627 357.183 321.351 328.214C326.639 308.332 330.244 288.089 335.699 268.263C341.029 248.908 347.793 227.262 344.174 206.991Z" fill="#4EAF5D"/>
<path d="M161.199 304.567C176.647 304.567 189.171 286.789 189.171 264.859C189.171 242.928 176.647 225.15 161.199 225.15C145.75 225.15 133.226 242.928 133.226 264.859C133.226 286.789 145.75 304.567 161.199 304.567Z" fill="white"/>
<path d="M162.535 285.491C168.637 285.491 173.584 276.254 173.584 264.859C173.584 253.464 168.637 244.226 162.535 244.226C156.432 244.226 151.485 253.464 151.485 264.859C151.485 276.254 156.432 285.491 162.535 285.491Z" fill="#357C3D"/>
<path d="M240.621 304.567C256.07 304.567 268.593 286.789 268.593 264.859C268.593 242.928 256.07 225.15 240.621 225.15C225.172 225.15 212.648 242.928 212.648 264.859C212.648 286.789 225.172 304.567 240.621 304.567Z" fill="white"/>
<path d="M241.957 285.491C248.06 285.491 253.007 276.253 253.007 264.859C253.007 253.464 248.06 244.226 241.957 244.226C235.854 244.226 230.907 253.464 230.907 264.859C230.907 276.253 235.854 285.491 241.957 285.491Z" fill="#357C3D"/>
<path fill-rule="evenodd" clip-rule="evenodd" d="M176.417 308.923C178.319 307.024 181.403 307.024 183.305 308.923C193.037 318.639 208.782 318.639 218.515 308.923C220.417 307.024 223.501 307.024 225.403 308.923C227.305 310.822 227.305 313.901 225.403 315.8C211.867 329.314 189.953 329.314 176.417 315.8C174.515 313.901 174.515 310.822 176.417 308.923Z" fill="#357C3D"/>
</svg>
