<svg width="331" height="453" viewBox="0 0 331 453" fill="none" xmlns="http://www.w3.org/2000/svg">
<path fill-rule="evenodd" clip-rule="evenodd" d="M271.064 171.276C273.23 172.487 275.028 173.314 276.722 173.878L279.212 174.709L276.87 175.893C275.279 176.697 273.766 177.722 272.244 179.028L271.07 180.035L270.504 178.599C269.759 176.711 269.397 174.564 269.427 172.217L269.451 170.375L271.064 171.276ZM167.026 177.373C169.053 181.019 171.499 184.609 173.866 188.081C179.088 195.743 184.489 203.667 186.152 213.142C186.346 214.32 186.429 218.468 186.429 218.468L184.881 217.839C179.712 215.74 174.227 214.179 168.923 212.669C166.873 212.085 164.753 211.482 162.675 210.854C161.829 210.629 160.988 210.365 160.174 210.11C158.199 209.491 156.333 208.906 154.371 208.806L153.774 208.776L153.475 208.26C150.772 203.593 152.799 199.145 155.12 194.988C156.514 191.958 158.308 189.111 160.042 186.357C161.84 183.503 163.699 180.552 165.057 177.464L165.949 175.436L167.026 177.373ZM266.779 216.03C263.706 219.24 260.852 222.502 258.296 225.725L256.355 224.836C257.293 220.075 260.206 216.722 265.523 214.281L266.779 216.03ZM163.988 287.745C164.295 287.745 164.584 287.864 164.8 288.08C165.019 288.299 165.14 288.594 165.139 288.911L163.988 288.907V287.745ZM291.847 367.114C293.653 364.025 293.918 359.176 291.212 356.546C292.122 350.868 290.335 344.522 286.375 340.001L286.366 340.014C280.488 331.233 280.056 328.105 284.351 318.289C292.027 317.996 299.933 317.909 307.428 316.12L307.147 314.449C307.425 314.376 308.842 314.005 309.146 313.927C309.105 314.238 308.894 315.656 308.899 315.94C309.249 316.322 310.095 316.677 310.253 315.925C314.968 295.824 319.187 276.122 323.772 256.051C328.57 235.794 338.22 203.393 314.599 192.229L315.087 190.153C316.391 190.154 316.915 188.736 317.513 186.733C320.178 179.567 314.996 172.541 310.15 168.108C303.526 161.493 297.415 154.149 291.503 147.049C274.64 126.599 251.695 99.3089 222.365 103.945L222.464 105.15C217.876 105.725 213.085 106.935 208.44 106.092C192.579 103.352 175.323 109.552 165.568 122.283L165.21 119.91C165.176 119.686 165.096 119.479 164.74 119.479C164.276 119.463 164.03 119.842 163.858 120.192C147.021 126.83 140.047 148.438 134.666 163.249C133.98 165.752 134.173 166.493 134.233 166.64L135.21 167.221C125.063 180.688 119.487 196.885 114.703 212.243C113.122 216.338 112.958 219.175 115.598 221.651C98.1874 232.088 84.5254 248.352 92.2499 266.895C102.331 284.938 129.026 296.386 149.077 306.749C157.039 311.052 168.62 313.344 175.947 320.391C176.436 321.113 177.138 321.816 177.564 321.758C180.965 322.26 186.026 301.071 185.256 299.374C188.846 300.655 192.839 300.587 196.594 301.255C196.257 301.992 195.156 302.991 195.98 303.811C195.924 306.299 196.308 308.989 196.857 311.526C192.351 310.805 192.453 313.164 196.788 311.916C196.906 313.015 197.207 315.816 197.322 316.879C196.028 316.311 193.452 315.913 192.551 316.8C192.919 317.983 196.11 316.869 197.34 317.22C198.059 322.54 198.293 327.77 198.798 333.074C194.961 336.72 188.969 337.581 185.546 341.524C182.645 344.525 183.064 349.561 186.466 351.975C184.382 354.414 186.05 358.461 189.094 359.123C193.24 360.089 197.573 358.754 201.661 357.632C208.457 355.399 215.573 351.919 223.416 346.993C226.519 345.065 228.83 342.036 229.929 338.461C237.886 313.996 240.012 297.371 236.256 289.027C234.113 287.412 231.724 288.409 229.745 287.527C228.801 287.106 227.951 286.541 227.266 284.536C237.589 283.524 252.638 285.403 260.914 280.469L260.623 279.851C261.387 279.364 263.066 277.329 263.705 276.674C262.553 290.491 261.628 304.665 261.17 318.433C259.652 320.98 258.363 323.616 256.948 326.557C255.963 327.521 254.242 329.174 255.252 330.268C255.252 330.268 246.755 350.116 244.158 360.149C241.686 360.253 240.684 364.431 240.778 367.206C241.154 372.256 247.65 372.792 253.346 373.286C257.242 373.694 261.249 373.905 265.196 373.905C272.328 373.911 290.16 373.421 291.847 367.114Z" fill="white"/>
<path fill-rule="evenodd" clip-rule="evenodd" d="M257.132 111.277C245.027 103.257 229.311 99.0347 215.273 104.286C215.106 104.344 215.172 104.587 215.346 104.548C217.565 104.063 219.818 103.791 222.084 103.698C217.491 104.258 213.034 105.459 208.383 104.649C192.847 102.091 176.373 107.346 166.051 119.382C165.784 117.614 163.58 117.68 162.861 118.93C149.134 123.751 141.359 141.862 136.174 154.43C135.565 156.671 131.334 165.974 133.366 167.181C123.696 180.389 118.255 196.028 113.427 211.499L113.289 211.875C112.193 214.903 111.356 218.329 113.678 221.024C104.049 226.893 95.1455 234.777 90.9369 245.459C84.2338 261.217 92.7753 274.568 106.093 283.105C119.291 292.633 133.59 300.565 148.37 307.377C153.34 309.664 158.373 311.812 163.435 313.892L163.938 314.097C167.914 315.727 171.927 317.643 174.901 320.779C180.684 329.193 186.027 303.988 186.085 300.475C188.798 301.288 191.785 301.306 194.584 301.73C194.229 302.338 194.201 303.128 194.634 303.775C194.627 305.832 194.846 307.905 195.249 309.942C190.952 309.562 191.101 313.882 195.581 312.886L195.804 314.975V314.975C193.759 314.343 189.439 315.353 191.97 317.783C193.295 318.436 194.707 317.834 196.119 317.903C196.728 322.678 196.96 327.456 197.405 332.252C193.567 335.578 187.87 336.459 184.463 340.451C181.485 343.696 181.411 348.773 184.819 351.827C182.988 354.944 185.202 359.003 188.588 359.822C192.952 360.856 197.523 359.478 201.735 358.315C209.394 355.802 216.641 352.002 223.461 347.74L223.757 347.554C227.131 345.458 229.573 342.195 230.734 338.416L230.982 337.651C235.103 324.891 242.434 299.864 236.935 288.042C234.344 285.18 230.167 288.513 228.658 285.141C238.399 284.381 254.094 286.072 262.031 280.524C261.252 291.684 260.096 302.838 260.142 314.032C260.34 315.504 259.342 316.425 259.743 317.91C258.294 320.379 257.043 322.953 255.802 325.529L255.724 325.602C254.435 326.819 252.779 329.287 254.474 330.734C248.705 339.154 245.575 349.092 243.017 358.866C240.296 359.487 239.269 364.531 239.437 366.942C240.201 373.421 247.913 373.463 252.981 374.01C255.942 374.32 258.911 374.513 261.887 374.594C267.906 374.756 273.934 374.439 279.904 373.657C284.768 373.233 290.145 371.966 292.567 367.274C294.52 363.906 294.825 358.852 292.124 355.83C292.913 350.042 291.062 344.008 287.445 339.445L287.335 339.307L287.344 339.303C287.427 339.267 287.419 339.13 287.081 339.062L287.043 339.055L286.881 338.804C281.566 330.6 280.904 328.35 284.847 318.992L288.43 318.865C295.071 318.622 301.781 318.274 308.207 316.63C309.117 317.385 310.719 317.298 311.076 315.816C315.75 295.894 320.04 275.88 324.598 255.929C329.335 234.932 339.543 203.058 314.841 190.883C317.364 190.884 317.926 187.869 318.539 185.967C320.787 178.573 315.833 171.742 310.652 166.942C292.464 148.759 278.78 125.852 257.132 111.277ZM291.818 358.056C292.16 367.844 284.721 370.191 276.348 370.441C271.131 370.936 265.875 371.087 260.637 370.883L258.17 370.741C254.049 370.499 249.898 370.197 245.888 369.261C243.247 368.72 242.585 366.368 243.539 364.069C243.951 364.251 244.439 364.264 244.82 363.998C245.246 363.7 245.556 363.385 245.791 363.013C259.358 369.025 276.43 368.367 289.579 361.449C291.264 361.367 291.483 359.363 291.818 358.056ZM258.836 327.073C263.767 324.102 273.754 322.811 278.517 326.549C278.191 328.427 278.954 330.164 279.67 331.838C277.496 331.321 258.592 328.784 261.262 333.412C262.757 334.613 264.792 333.786 266.52 333.624C271.153 333.24 275.819 333.362 280.439 333.885C280.842 335.009 280.997 336.27 281.498 337.331C276.819 335.793 271.924 335.058 267.014 334.795L266.741 334.781C264.598 334.667 262.09 334.195 260.494 335.939C259.134 337.791 262.152 339.065 263.707 338.883C270.33 338.686 276.966 338.93 283.583 339.214L283.874 339.692C288.549 347.4 289.556 350.436 287.666 359.681C287.677 359.672 287.688 359.665 287.698 359.656C287.705 360.156 287.866 360.606 288.209 360.942C273.95 365.55 260.669 365.288 246.5 360.718C248.571 350.354 252.683 340.564 255.74 330.488C256.547 330.038 256.786 329.044 257.391 328.386C258.002 328.334 258.607 327.853 258.836 327.073ZM224.665 285.256C230.878 289.631 228.072 294.801 226.355 300.741C223.844 309.474 221.915 318.37 219.767 327.194C218.501 335.033 213.524 341.831 206.364 345.356C203.143 347.046 199.609 348.14 195.998 348.589C194.604 348.73 193.059 348.581 192.126 349.826C191.596 350.397 191.538 351.335 192.126 351.895C193.972 353.98 199.339 352.099 201.829 351.579C220.28 346.009 223.084 332.696 226.643 316.004C228.367 306.733 232.605 296.97 230.048 287.568C231.594 288.391 233.97 288.108 235.067 289.664C237.598 305.638 232.014 321.843 227.71 337.114C226.755 340.322 224.738 343.145 221.802 344.829C215.541 348.637 208.978 352.117 202.035 354.52L201.824 354.58C198.3 355.587 190.688 358.304 187.983 355.463C187.419 354.633 187.445 353.745 188.156 353.194L188.5 353.063C189.162 352.808 189.94 352.45 190.061 351.68L190.068 351.627L190.043 351.618C190.618 350.567 189.502 349.39 188.502 349.133C187.093 349.082 186.438 348.148 185.937 346.776C185.038 340.06 194.507 338.266 197.646 333.671C197.978 335.349 200.57 335.029 200.557 333.337C200.659 328.199 199.538 323.014 198.77 317.945C199.952 317.895 201.207 318.37 202.357 318.113C202.527 317.054 199.209 315.945 198.296 315.596C198.107 314.72 197.907 313.848 197.695 312.979C205.076 313.423 201.647 311.066 196.986 310.259C196.841 309.767 196.714 309.261 196.598 308.761L196.541 308.511C196.246 307.258 196.09 306.074 196.039 304.85C199.302 306.339 202.973 307.243 206.509 306.484C212.898 305.006 216.209 297.282 213.645 291.486C214.228 289.43 213.083 287.244 212.047 285.51C216.253 285.495 220.461 285.38 224.665 285.256ZM287.128 339.155C287.183 339.188 287.235 339.225 287.285 339.265L287.335 339.307L287.322 339.31C287.262 339.323 287.173 339.288 287.12 339.161C287.131 339.172 287.131 339.166 287.128 339.155ZM286.739 339.026C286.84 339.029 286.926 339.037 287 339.048L287.043 339.055L287.057 339.076C287.083 339.116 287.099 339.132 287.118 339.159C287.012 339.073 286.868 339.033 286.739 339.026ZM279.113 332.903C279.457 332.949 279.8 332.99 280.146 333.033L280.214 333.217V333.217C279.847 333.107 279.481 333.003 279.113 332.903ZM263.843 318.045C269.981 318.668 276.168 318.284 282.308 318.98C281.104 320.636 280.245 322.469 279.525 324.403C274.482 319.661 266.391 321.111 260.324 322.858C260.732 321.67 261.108 320.472 261.445 319.262C262.353 319.408 263.39 318.9 263.843 318.045ZM114.126 221.604C122.517 230.119 135.198 232.46 146.051 236.219C148.686 237.863 147.398 241.119 147.062 243.593C146.434 247.653 145.935 251.733 145.573 255.825C144.232 254.281 140.72 254.079 138.754 253.452L138.492 253.393C135.87 252.794 133.145 251.895 130.469 252.478C129.39 252.711 129.317 254.198 130.175 254.727C132.346 256.07 135.004 256.109 137.493 256.403L138.13 256.479C140.333 256.74 142.553 256.978 144.767 256.885C145.045 256.929 145.325 256.823 145.501 256.635C145.226 260.914 144.673 265.253 144.86 269.539C144.962 270.3 145.208 271.128 145.75 271.692L145.768 271.757C146.075 272.839 147.074 274.772 148.223 273.341L148.439 272.954C150.128 269.92 151.729 266.747 152.545 263.358C152.817 270.211 153.037 277.061 153.311 283.912L153.32 284.076C153.39 285.239 153.618 286.638 154.377 287.533C154.31 288.065 154.789 288.374 155.216 288.184L155.273 288.21C155.683 288.393 156.342 288.562 156.592 288.064C158.034 284.705 159.569 281.399 160.976 278.032C160.902 279.76 160.986 281.492 160.93 283.222C160.903 285.196 160.534 287.516 161.48 289.343C162.287 290.942 164.298 291.361 165.377 289.969C166.241 288.639 166.731 286.996 167.518 285.586C169.735 296.496 175.347 280.459 176.378 277.154C179.545 278.998 182.885 280.556 186.338 281.803C185.389 283.236 185.618 285.184 185.32 286.831C185.051 289.286 184.838 291.744 184.625 294.205L184.547 294.676C183.253 302.373 181.369 310.241 177.222 316.942C173.711 313.518 169.105 311.498 164.6 309.684C159.175 307.457 153.795 305.127 148.487 302.637C134.142 295.919 120.328 288.043 107.452 278.823L107.015 278.518C99.8591 273.503 92.4024 266.927 92.2193 257.569C91.6021 242.229 104.481 231.765 114.126 221.604ZM272.248 212.909C284.498 201.463 303.252 186.665 320.17 197.538C335.973 210.859 323.453 242.797 320.225 259.998C316.12 278.078 311.782 296.108 307.758 314.205C293.409 316.091 278.845 317.079 264.425 315.38C264.589 302.62 265.453 289.877 265.736 277.112C265.998 270.536 265.907 263.933 266.897 257.42C267.736 252.123 266.658 245.726 269.619 241.099C270.715 239.415 272.498 237.94 272.897 235.909C272.906 235.814 272.781 235.783 272.721 235.836C271.854 236.595 271.158 237.5 270.239 238.227L269.562 238.749C268.463 239.602 267.367 240.512 266.686 241.725C266.616 241.208 267.929 236.602 267.143 237.151L266.995 237.555C265.937 240.451 264.984 243.381 264.713 246.479C263.675 257.04 263.096 267.653 262.207 278.229C260.064 279.191 258.095 280.605 255.755 281.117C251.921 281.494 248.083 281.281 244.243 281.23L243.883 281.226C232.68 281.059 221.511 281.686 210.316 281.509C198.872 281.951 187.174 278.965 177.407 272.967C182.758 248.896 164.386 231.727 155.891 211.15C165.676 213.609 175.415 216.249 185.173 218.84C183.856 222.047 188.116 231.135 189.719 234.356C198.295 251.198 215.64 262.204 231.237 246.131C231.23 246.18 231.224 246.229 231.219 246.28C231.742 245.804 232.321 245.385 232.904 244.983C233.688 251.388 235.806 257.843 239.805 262.986L240.242 263.531C241.489 265.08 243.295 267.118 245.292 265.947C246.763 265.155 247.039 263.613 246.754 262.057C251.559 267.266 256.793 268.442 253.51 259.48L253.619 259.592C255.457 261.472 260.335 265.626 260.831 260.715C260.615 258.27 259.103 256.087 258.334 253.797C259.155 254.302 260.078 254.552 261.018 254.192C263.539 253.229 262.242 250.358 261.679 248.55C260.256 243.98 258.803 239.417 257.326 234.863C257.838 232.156 256.217 229.463 257.737 227.11C258.387 227.449 259.263 227.378 259.891 226.542C263.577 221.653 267.807 217.123 272.248 212.909ZM307.588 315.035C307.584 315.063 307.584 315.087 307.582 315.114C307.441 315.123 307.302 315.136 307.161 315.148C307.304 315.114 307.446 315.072 307.588 315.035ZM186.582 297.458C188.843 274.27 182.976 285.19 206.804 285.453C206.697 286.034 207.463 285.967 207.192 285.805C207.537 284.524 209.493 288.279 209.766 288.766C210.281 289.853 210.515 291.207 210.697 292.396C211.973 299.058 207.215 304.894 200.276 302.062C201.169 301.988 202.173 302.31 202.914 301.741C202.911 301.739 202.909 301.736 202.905 301.732C203.569 300.548 199.928 300.496 199.204 300.18C196.383 299.592 193.555 299.047 190.75 298.388C189.383 298.067 187.983 297.563 186.582 297.458ZM163.675 288.498C163.878 288.379 163.774 288.768 163.706 288.571C163.697 288.545 163.684 288.522 163.675 288.498ZM138.017 164.685C148.215 165.41 154.818 170.427 162.055 176.861C162.595 177.326 163.143 177.782 163.704 178.224C160.542 183.747 157.132 189.124 153.837 194.57L153.219 195.595C152.258 197.193 151.32 198.819 150.748 200.598C148.798 206.741 155.605 217.554 158.079 223.585C169.916 244.392 181.034 258.837 170.264 283.481C169.686 281.926 170.963 276.497 169.053 276.286L169.092 275.9C169.702 269.635 169.73 262.091 167.824 256.559C168.879 267.262 167.736 278.48 163.664 288.473C162.598 278.999 164.01 268.417 163.682 258.686C163.695 257.19 161.423 257.206 161.359 258.686L161.281 261.198C161.015 269.713 160.555 278.629 155.585 285.833C155.106 274.867 157.114 263.317 153.256 252.804C152.941 252.047 151.805 252.105 151.772 253.005C151.701 256.584 150.182 268.697 147.56 270.798C146.84 268.607 146.914 266.21 147.029 263.915C147.386 255.598 148.59 247.482 150.068 239.282C150.335 237.662 149.857 235.667 148.172 235.042C146.921 233.856 145.193 233.015 143.764 232.34C134.683 227.871 122.19 228.732 116.048 219.528L115.75 219.08C115.034 218 114.362 216.934 114.06 215.64C114.888 212.56 116.078 209.558 117.089 206.534C117.992 203.863 118.919 201.2 119.892 198.553L120.218 197.672C124.56 185.865 130.087 174.533 138.017 164.685ZM208.335 285.491C208.567 285.567 208.752 285.798 208.949 285.971L208.992 286.007L208.871 285.911C208.743 285.808 208.628 285.712 208.45 285.577L208.335 285.491ZM262.117 279.409L262.062 280.124V280.124C261.711 280.195 261.366 280.285 261.022 280.372C261.421 280.084 261.793 279.765 262.117 279.409ZM210.162 263.254C210.202 263.114 210 263.032 209.925 263.155C206.961 268.349 201.127 270.416 195.509 271.239C194.553 271.462 194.67 272.778 195.509 273.055C198.649 274.091 202.275 272.695 204.845 270.836C207.48 268.933 209.277 266.363 210.162 263.254ZM153.657 260.29C154.213 264.287 154.163 268.364 154.211 272.4C154.027 268.364 153.875 264.325 153.657 260.29ZM235.484 267.33C234.901 267.53 234.298 267.662 233.705 267.713C234.335 268.012 235.055 267.862 235.484 267.33ZM281.183 138.057C290.092 148.103 297.891 159.1 307.474 168.542C313.088 173.596 318.4 180.503 314.022 188.108C313.098 188.471 312.936 189.826 313.732 190.464C313.542 190.439 312.32 189.849 312.594 190.332C315.049 191.376 317.207 192.888 319.067 194.718C307.481 186.23 292.119 193.026 282.015 200.633C277.028 204.261 272.391 208.26 268.049 212.564C266.496 212.841 264.889 213.668 263.594 214.314C254.662 218.587 253.263 224.361 254 233.592C256.68 238.681 257.948 244.5 259.816 249.956C261.737 254.198 257.958 251.339 257.416 249.489C256.101 247.859 255.466 245.693 254.66 243.797L254.602 243.662C254.373 243.12 253.882 242.717 253.25 242.898C252.743 243.043 252.272 243.668 252.469 244.209L252.874 245.247C254.833 250.263 256.858 255.305 258.418 260.445C253.146 257.3 250.535 251.347 247.767 246.09C247.007 244.693 244.96 245.924 245.646 247.326C246.281 248.619 246.93 249.909 247.617 251.177C249.412 254.987 250.714 259.007 251.792 263.074C245.866 259.553 243.8 252.382 242.095 246.33C241.99 244.603 239.49 244.943 239.748 246.638C240.382 250.002 241.35 253.317 242.863 256.398L243.263 258.728C243.529 260.281 243.793 261.835 244.044 263.391C243.902 263.322 243.748 263.313 243.599 263.349C238.349 258.083 236.247 250.818 234.414 243.836C235.285 240.882 234.219 237.862 234.341 234.818C233.877 230.92 235.139 227.287 236.888 223.806C237.935 213.039 248.348 208.369 255.608 202.04C264.5 193.288 269.176 179.889 281.674 175.551C282.973 175.633 284.226 175.356 285.442 174.938C285.496 174.924 285.505 174.832 285.442 174.823C284.205 174.622 282.969 174.307 281.729 174.083C281.395 172.997 280.059 172.864 279.054 173.35C268.247 168.632 259.289 160.338 250.702 152.446C259.087 144.72 269.943 139.924 281.183 138.057ZM231.455 247.565C231.275 247.763 231.118 247.979 231.001 248.214C230.969 248.275 230.972 248.346 230.962 248.413C231.116 248.125 231.279 247.84 231.455 247.565ZM265.737 214.91C262.752 218.03 259.885 221.28 257.187 224.681C258.155 219.773 261.324 216.936 265.737 214.91ZM165.818 177.538C172.3 189.199 182.45 199.443 184.823 212.965C185.014 214.122 185.027 215.293 185.051 216.461C177.814 213.523 170.196 211.692 162.731 209.437C159.902 208.684 157.154 207.499 154.181 207.348C151.731 203.118 153.699 198.976 155.856 195.118C158.666 188.992 163.11 183.694 165.818 177.538ZM270.281 171.866C272.155 172.913 274.088 173.872 276.126 174.551C274.371 175.438 272.767 176.558 271.281 177.833C270.534 175.94 270.255 173.889 270.281 171.866ZM222.625 104.642C223.598 113.185 223.551 122 221.272 130.338C217.876 143.332 205.298 155.48 191.067 152.933C176.708 149.944 169.65 135.134 166.69 122.112C174.252 112.557 186.089 106.58 198.288 106.099C206.221 105.776 215.189 108.323 222.625 104.642Z" fill="black"/>
<path fill-rule="evenodd" clip-rule="evenodd" d="M189.359 42.585C181.339 42.585 171.718 46.4571 170.9 46.5345L170.878 46.5357C170.447 46.5357 168.766 47.8118 165.832 50.3641L169.009 56.5357L168.752 56.7802C167.522 57.955 166.472 59.0258 165.643 59.8699C158.874 66.7623 157.657 93.8237 159.252 103.261C160.848 112.698 163.802 121.933 177.558 121.933C191.314 121.933 206.617 113.695 208.974 111.129C210.546 109.419 212.311 108.6 214.27 108.671C214.351 108.57 214.431 108.469 214.51 108.368L214.798 108.328C217.509 107.937 219.452 107.41 220.626 106.749C222.919 105.456 225.44 98.663 225.44 97.1665C225.44 95.685 229.204 84.9075 229.279 83.7669L229.28 83.7354C229.28 82.7819 234.197 78.3991 234.197 77.0072C234.197 75.6153 235.188 75.6997 234.197 70.7948L233.909 69.3539C232.854 64.1317 230.79 55.4844 222.919 51.7269C214.27 47.5978 197.459 42.585 189.359 42.585Z" fill="white"/>
<path fill-rule="evenodd" clip-rule="evenodd" d="M224.254 51.5328C219.941 46.9726 195.452 39.919 183.063 41.4142L182.691 41.4621C181.702 41.587 180.728 41.7761 179.766 42.033C176.658 42.7561 173.447 43.8509 170.879 45.6797C168.735 47.1757 161.971 49.6189 163.964 53.5327C163.225 54.9276 162.949 56.6509 163.449 58.0248C163.512 58.4993 163.658 58.9364 163.846 59.3895C162.267 61.7107 161.017 64.3357 160.005 66.8324C158.236 73.1158 157.135 79.6549 156.974 86.0657C156.438 98.2454 157.779 112.794 168.429 120.67C174.863 125.661 184.941 125.829 192.172 119.641C192.582 119.157 194.512 117.852 193.868 117.623C193.676 117.824 193.479 118.021 193.278 118.213C193.287 118.192 193.289 118.171 193.285 118.147L193.474 117.977C193.829 117.65 194.29 117.175 193.766 117.268C193.742 117.295 193.717 117.318 193.692 117.345C193.581 117.411 193.497 117.468 193.432 117.519L193.398 117.546L193.409 117.535C193.711 117.214 193.892 116.887 193.44 117.096L193.381 117.125C193.18 117.336 192.976 117.537 192.768 117.733C192.771 117.71 192.768 117.687 192.755 117.662L192.949 117.476C193.138 117.291 193.109 117.29 193.017 117.141C193.419 116.58 192.668 116.913 192.616 117.132C192.146 117.022 191.734 117.899 191.432 118.006C178.178 128.156 158.943 119.15 159.255 90.8693L159.259 90.316C159.35 81.273 160.115 71.9784 163.87 63.7925C164.235 63.0039 164.644 62.2368 165.093 61.4947C165.403 60.9381 165.734 60.3957 166.091 59.8677C167.089 59.7874 168.074 59.6054 169.044 59.3235C169.378 59.2397 169.707 59.1469 170.037 59.0381C174.851 59.2996 179.558 59.5842 184.386 59.8539L185.894 59.9475C189.984 60.2094 194.214 60.6288 197.515 63.1484C200.753 65.4423 200.768 69.9656 203.54 72.4841C207.493 75.1564 207.522 77.566 208.283 81.504C208.226 84.4726 206.16 88.7858 209.952 90.0351C209.312 90.9437 210.204 90.5071 210.274 90.1885C210.282 90.1903 210.289 90.1921 210.294 90.1921C209.724 91.2477 210.562 90.583 210.636 90.2438C210.681 90.2313 210.726 90.1992 210.771 90.1546C210.196 91.0794 211.125 90.4319 211.07 90.2634C212.18 88.5642 214.464 88.3003 216.074 88.7506C216.094 88.8113 216.165 88.8166 216.21 88.7845C223.057 90.2624 221.291 104.38 214.274 103.015C213.974 102.954 213.981 103.098 213.921 103.112C214.083 102.688 213.626 102.86 213.631 102.949L213.603 102.948C213.581 102.946 213.59 102.944 213.574 102.949C213.731 102.083 212.849 103.339 212.918 103.39C212.891 103.374 212.861 103.365 212.834 103.362L212.864 103.279C213.011 102.891 212.998 103.052 212.997 102.83C213.107 102.555 213.115 102.675 213.089 102.496C212.703 102.198 212.589 103.103 212.46 103.169C212.681 102.862 212.505 102.611 212.297 102.778C210.716 106.089 208.675 109.2 206.037 111.65C205.748 111.877 205.456 112.1 205.154 112.31C204.032 113.284 202.31 113.91 201.26 114.772C201.26 114.786 201.267 114.804 201.278 114.822L201.253 114.844V114.844L201.229 114.867L200.864 115.041C200.756 115.132 200.66 115.234 200.574 115.346C200.482 115.452 200.402 115.568 200.334 115.691C200.3 115.841 200.375 115.903 200.518 115.839C200.581 115.817 200.643 115.792 200.706 115.769C200.703 115.775 200.701 115.778 200.697 115.782C200.677 115.813 200.538 116.134 200.698 116.082L200.717 116.074C200.805 116.042 200.892 116.007 200.978 115.973C200.876 116.099 200.783 116.237 200.701 116.353C200.613 116.444 200.559 116.551 200.538 116.672C200.542 116.74 200.579 116.768 200.647 116.759C200.751 116.726 200.853 116.69 200.955 116.652L200.926 116.708C200.854 116.849 200.751 117.087 200.934 117.007C201.09 116.959 201.24 116.904 201.39 116.843C201.403 116.868 201.428 116.877 201.478 116.854C201.956 116.684 202.418 116.478 202.861 116.233C203.25 115.951 203.642 115.675 204.032 115.395C204.4 115.175 204.754 114.931 205.093 114.656C207.358 113.199 209.341 111.348 210.914 109.286C213.545 111.556 218.805 109.388 222.059 107.611C224.937 106.023 226.069 103.088 226.361 99.9224C226.969 95.6611 230.466 94.2025 230.222 84.8526C230.228 84.8544 230.233 84.8544 230.24 84.8544C230.368 84.8169 230.491 84.7669 230.607 84.7027C230.727 84.6456 230.84 84.5778 230.946 84.4958L231.077 84.3156V84.3156C231.145 84.2781 231.206 84.2389 231.252 84.1996L231.276 84.2307C231.353 84.3225 231.301 84.1843 231.297 84.1568L231.524 83.8491C232.063 83.1168 232.654 82.295 233.135 81.6378L233.15 81.6645C233.161 81.6847 233.167 81.6992 233.162 81.7056C234.307 80.0665 235.384 78.0866 235.683 76.1698C236.037 74.6934 235.899 73.172 235.59 71.8044C234.269 67.0152 229.939 56.1778 224.254 51.5328ZM193.17 117.764L193.241 117.701L193.178 117.779C193.145 117.82 193.111 117.857 193.056 117.894C193.06 117.882 193.06 117.869 193.058 117.855C193.095 117.827 193.132 117.797 193.17 117.764ZM183.117 43.8206C191.519 43.1011 199.783 44.9447 207.8 47.1763L208.354 47.3346C212.912 48.6302 217.733 49.7961 221.585 52.5693C226.968 56.6755 229.747 63.2078 232.173 69.239C234.291 73.7201 233.208 78.7729 230.016 81.9018C229.684 78.7925 229.118 75.7742 228.233 72.7801C228.049 72.3123 228.188 72.1591 227.79 72.098C227.189 80.1667 230.15 86.1281 224.291 95.6907C221.749 100.203 224.692 103.504 217.513 105.879L217.319 105.953C215.823 106.515 214.19 106.958 212.725 106.644L212.856 106.432C212.99 106.213 213.031 106.106 212.836 106.013C212.841 106.002 212.848 105.991 212.856 105.979C213.013 105.683 213.165 105.383 213.311 105.08C213.369 105.099 213.429 105.113 213.49 105.13C213.45 105.203 213.445 105.276 213.556 105.301C213.95 105.436 214.356 105.49 214.771 105.464L214.86 105.458C215.328 105.429 215.624 105.344 215.888 105.265C215.976 105.251 216.063 105.237 216.15 105.219C216.999 105.031 217.899 104.554 218.481 104.081C225.119 100.326 224.433 87.5434 216.251 86.3351C216.084 78.2871 212.24 64.7094 205.862 57.0405C200.097 49.9864 184.357 46.929 173.407 48.0071C173.248 48.0597 173.088 48.1129 172.928 48.1666C171.239 48.3161 169.629 49.0657 167.938 49.4139C169.152 48.5079 170.529 47.9043 171.948 47.3914C174.774 45.6697 178.013 44.7381 181.143 44.081C181.792 43.9223 182.449 43.8348 183.117 43.8206ZM216.626 92.8003C216.186 92.5623 216.236 92.7921 216.135 92.7253C212.971 92.4683 209.559 95.2276 207.79 97.5279C207.93 97.6724 208.308 97.2442 208.374 97.1764C208.383 97.1853 208.394 97.1925 208.405 97.196L208.355 97.2653C207.638 98.29 209.06 97.0842 209.193 96.8357C209.216 96.8482 209.239 96.8553 209.266 96.85C209.153 96.96 208.809 97.2471 208.75 97.4512L208.659 97.5268C207.799 98.2604 207.87 98.8123 208.847 97.7705C208.824 97.8187 208.815 97.8633 208.831 97.8989L208.797 97.9213C208.317 98.2555 207.922 99.1872 208.926 98.2308C208.821 98.9294 209.92 97.5791 209.956 97.5885C211.858 96.1016 214.658 94.6555 217.043 94.4612L217.125 94.4518C217.563 94.3958 217.77 94.2664 217.616 93.9813C218.156 93.8535 218.029 93.5892 217.774 93.5977C218.154 93.3487 217.812 93.1105 217.591 93.2035C217.743 92.7851 217.135 93.0638 217.079 93.0054C216.763 92.5204 216.678 92.925 216.626 92.8003ZM223.258 66.8698C221.739 66.3154 217.25 67.9752 217.609 70.1734C217.823 70.6781 218.527 70.9673 219.022 70.6824L219.669 70.25C220.794 69.4997 221.808 68.8417 223.016 68.1873C223.673 67.8625 223.956 67.1728 223.258 66.8698ZM214.612 63.6031L215.199 63.2227C218.366 61.1579 222.844 58.0294 214.903 61.2663C213.998 61.6528 212.795 61.8816 212.301 62.74C211.526 64.3222 213.567 64.4286 214.612 63.6031ZM214.256 54.339C214.51 53.3783 211.347 54.5056 210.427 54.8028L210.287 54.8556C209.391 55.1879 208.364 55.4963 207.829 56.2661C207.201 57.3297 208.471 57.55 209.258 57.0696C210.871 56.0195 212.64 55.2272 214.256 54.339ZM206.214 49.8638C207.994 47.9276 203.23 49.7824 202.516 50.2973L202.496 50.3125C201.963 50.6859 202.071 51.4901 202.571 51.7263C203.995 51.7533 205.042 50.5715 206.214 49.8638ZM198.113 47.7424C200.943 45.7167 197.215 46.6803 195.92 47.4741C195.038 48.2493 195.947 49.5578 198.113 47.7424Z" fill="black"/>
<path fill-rule="evenodd" clip-rule="evenodd" d="M178.471 108.276C179.675 107.786 180.75 106.97 181.535 105.928C181.808 105.566 181.879 105.183 181.822 104.833C181.757 104.439 181.523 104.083 181.205 103.843C180.885 103.603 180.485 103.485 180.098 103.545C179.762 103.598 179.427 103.781 179.163 104.161L179.107 104.237C178.64 104.866 178.032 105.382 177.338 105.715C176.67 106.036 175.923 106.186 175.149 106.099C173.676 105.933 172.661 105.139 171.582 104.062C171.448 103.926 171.314 103.786 171.18 103.643C171.095 103.514 170.977 103.431 170.846 103.387C170.701 103.339 170.537 103.342 170.386 103.394C170.241 103.444 170.111 103.54 170.024 103.667C169.941 103.788 169.894 103.938 169.91 104.11C170.008 105.226 170.594 106.223 171.427 107.005C172.352 107.874 173.577 108.476 174.731 108.686C176.003 108.919 177.298 108.752 178.471 108.276V108.276ZM174.132 91.0495C172.779 91.8684 170.718 93.7778 172.173 95.8079C173.886 97.5979 176.352 95.5455 177.567 94.6174C178.694 93.898 179.96 95.7481 178.914 96.5881C170.134 103.063 166.57 91.2637 173.448 90.0868C174.205 89.9571 174.486 90.7962 174.132 91.0495ZM189.867 83.5174C189.718 81.6698 186.892 81.2503 186.611 83.0785C186.36 84.7162 186.656 86.2207 187.397 87.6951C188.104 89.1038 189.883 88.4466 190.017 87.1639C190.198 85.4445 189.96 84.6666 189.867 83.5174ZM168.362 82.6994C167.968 82.1856 167.399 81.8349 166.718 82.0331C164.589 82.6527 165.217 85.6628 165.964 87.128C166.371 87.9237 167.684 88.1254 168.277 87.4249C169.244 86.2824 169.707 84.0008 168.478 82.8755C168.444 82.8173 168.407 82.7586 168.362 82.6994ZM187.427 75.433L187.09 75.3744C186.05 75.1952 184.757 75.023 184.021 75.856C183.63 76.2977 183.496 77.1187 184.021 77.5415C184.944 78.2854 185.964 77.9971 187.07 78.0601C187.981 78.1122 188.857 78.2624 189.735 78.5124C191.66 79.0606 193.23 80.0614 194.874 81.1604C195.09 81.3045 195.311 81.0296 195.208 80.8285C194.258 78.9762 192.418 77.4546 190.575 76.5271C189.591 76.0321 188.515 75.6214 187.427 75.433ZM170.302 74.6032L170.045 74.6557C167.244 75.2388 163.605 76.4037 162.279 79.1438C162.228 79.5312 162.282 79.6143 162.325 79.6685L162.34 79.6866C162.375 79.7329 162.404 79.7968 162.573 79.8495C162.619 79.8384 162.667 79.8267 162.714 79.8142C163.322 79.6555 163.803 79.4369 164.269 79.21L164.774 78.9623C165.36 78.6762 165.951 78.4005 166.577 78.197C167.914 77.7628 169.288 77.4569 170.685 77.2936C170.987 77.2582 171.278 77.1565 171.508 76.9822C171.727 76.8167 171.893 76.5876 171.969 76.2831C172.068 75.889 172.039 75.5906 171.827 75.2351C171.667 74.9681 171.439 74.783 171.177 74.6768C170.909 74.5684 170.605 74.5429 170.302 74.6032Z" fill="black"/>
</svg>
