<svg width="538" height="727" viewBox="0 0 538 727" fill="none" xmlns="http://www.w3.org/2000/svg">
<path fill-rule="evenodd" clip-rule="evenodd" d="M421.837 442.9C420.349 438.809 422.521 434.729 423.727 430.771C428.009 417.046 432.683 403.321 439.298 390.522C441.803 386.24 437.681 380.988 432.905 382.195C424.728 383.342 416.297 382.429 408.106 381.923C405.111 374.162 397.116 370.943 390.824 366.474C383.684 362.012 376.738 356.886 369.312 352.974C368.899 349.277 364.423 348.361 361.685 351.005C354.167 346.322 345.151 347.192 337.092 344.123C330.968 334.212 330.509 323.789 328.888 314.227C328.181 310.059 328.932 306.037 326.087 302.321C316.533 288.865 278.78 283.03 264.86 291.005C257.368 286.325 257.187 294.8 255.997 300.03C254.674 302.647 253.959 305.61 254.18 308.733C246.132 325.566 227.719 333.176 211.229 339.34C209.16 337.347 206.204 337.599 204.236 339.248C189.943 342.36 176.071 347.829 164.095 356.369C150.49 360.354 140.908 371.434 133.98 383.315C133.216 384.568 133.036 385.845 133.259 387.017C111.953 418.292 101.784 455.732 100.356 493.546C86.6541 501.78 106.868 575.75 111.574 591.107C111.578 591.105 111.583 591.103 111.588 591.101C114.641 596.513 118.107 611.956 125.747 610.761C130.988 616.695 139.339 615.528 146.451 615.984C145.293 620.433 145.862 625.524 147.241 629.921C148.871 635.154 156.873 635.332 158.008 629.626C228.831 643.404 301.498 632.41 373.117 634.479C393.824 634.626 414.53 635.267 435.187 636.744C438.096 636.952 441.045 633.976 440.847 631.076C436.406 583.761 432.235 521.517 427.268 474.665C426.09 463.98 425.159 453.178 421.837 442.9Z" fill="white"/>
<path fill-rule="evenodd" clip-rule="evenodd" d="M257.165 293.925C257.368 293.37 258.196 293.443 258.212 294.067C258.538 307.37 255.231 323.627 244.599 332.614C239.142 337.227 231.927 339.338 225.301 341.763L224.554 342.04L212.848 346.406C209.743 347.564 206.393 349.346 203.651 347.71C205.87 353.221 207.733 358.883 210.436 364.194C213.8 370.805 217.868 376.854 222.846 382.356C242.57 404.151 273.784 410.799 301.796 404.413C316.22 401.124 330.256 394.892 340.096 383.525C347.575 374.884 351.872 363.287 352.885 351.848C352.589 351.896 352.279 351.894 351.96 351.824C348.416 351.049 344.838 349.147 341.719 347.281L341.419 347.101C338.418 345.292 335.29 343.22 333.137 340.409C330.998 337.618 328.754 328.514 328.754 328.514C328.142 325.093 327.569 318.277 327.667 314.818C327.676 314.492 329.122 314.299 329.276 314.638C330.612 317.574 331.044 324.026 332.075 327.082L332.284 327.692C333.385 330.883 334.329 334.768 336.612 337.348C340.899 342.192 347.366 344.243 353.139 346.672C353.553 341.197 362.286 341.325 362.175 347.035C362.169 347.345 362.155 347.653 362.144 347.962C362.833 348.341 363.495 348.775 364.115 349.193L364.719 349.604C367.005 351.161 369.309 352.641 371.744 353.962C376.458 356.521 381.448 358.549 386.278 360.871C391.164 363.221 395.733 366.021 400 369.371C402.004 370.944 403.925 372.62 405.748 374.401L406.242 374.889C407.977 376.619 410.234 378.553 411.223 380.827C411.441 381.328 412.532 382.494 413.124 382.533C422.3 383.135 431.457 383.986 440.576 385.261C442.937 385.591 443.87 386.81 442.997 388.78C439.999 395.551 428.259 422.592 425.137 429.85C425.502 435.181 425.009 441.457 425.338 446.79C425.818 454.572 426.448 462.352 427.202 470.112C429.902 497.872 433.994 525.497 437.692 553.136C439.543 566.969 441.23 580.821 442.896 594.677C443.737 601.679 444.45 608.688 445 615.72C445.229 618.65 445.436 621.582 445.619 624.516L445.777 627.117C445.995 630.392 446.495 633.519 444.472 636.329C443.554 637.604 441.459 638.322 440.253 636.873C438.736 635.053 438.173 633.693 438.028 631.301C437.917 629.471 437.891 627.632 437.807 625.799C437.627 621.827 437.401 617.857 437.136 613.889C436.607 605.957 436.003 598.026 435.303 590.107C432.852 562.34 428.192 534.781 425.091 507.081C423.529 493.117 422.418 479.127 421.831 465.085C421.537 458.073 421.43 451.062 421.499 444.043C421.525 441.422 421.649 438.813 421.829 436.209C417.184 446.775 412.301 457.24 407.195 467.565L405.985 470.011C402.75 476.537 399.427 483.088 395.539 489.241L394.871 490.289C393.295 492.788 391.143 496.729 388.271 497.518C386.27 498.067 383.825 497.68 381.773 497.641C379.737 497.602 377.699 497.593 375.664 497.511C373.382 497.419 371.204 497.119 368.999 496.523C368.632 496.424 368.285 496.317 367.97 496.181C365.748 499.822 361.972 502.595 358.112 504.211C355.02 505.505 351.779 506.392 348.533 507.213L347.387 507.501C343.907 508.369 339.926 508.782 337.964 512.147L337.508 512.927C336.049 515.409 334.649 517.59 332.234 519.369C329.634 521.286 326.554 522.491 323.487 523.429C320.345 524.389 317.131 525.124 313.941 525.911L313.072 526.127C310.966 526.655 308.842 527.139 306.748 527.713C305.856 527.958 304.947 528.21 304.071 528.512C303.045 528.865 302.3 529.416 301.49 530.015C300.763 532.56 297.654 533.942 295.097 533.765C293.755 533.672 292.55 533.215 291.454 532.547C289.541 534.177 287.435 535.638 285.486 537.148C282.755 539.263 280.014 541.364 277.258 543.445C271.575 547.734 265.849 551.967 260.063 556.116C249.793 563.481 239.301 570.508 228.629 577.276C224.18 580.097 219.701 582.914 215.178 585.664L215.66 585.843L216.618 586.205C218.881 587.051 221.403 588.419 221.842 591.062C222.189 593.16 221.019 594.605 218.952 594.861C216.494 595.165 214.582 593.427 213.052 591.767C212.376 591.035 211.62 590.355 210.974 589.601C210.71 589.294 210.507 588.939 210.328 588.567C205.865 591.201 201.353 593.746 196.77 596.127L195.623 596.718C184.258 602.538 173.197 608.913 161.735 614.567C158.745 616.042 155.1 617.637 151.301 618.726C152.309 622.639 152.293 626.936 152.319 630.908C152.343 634.778 146.2 634.76 146.33 630.908L146.392 629.047C146.504 625.919 146.687 622.672 147.428 619.628C136.233 621.487 125.049 617.447 122.967 616.233C120.669 614.895 118.582 612.753 116.846 610.767C113.131 606.514 110.553 601.417 108.265 596.289C103.365 585.308 99.894 573.57 97.3561 561.831C87.9993 518.549 92.0239 472.225 107.219 430.736C111.015 420.37 115.497 410.232 120.634 400.462L121.271 399.254C126.397 389.592 132.093 379.966 139.329 371.744C146.865 363.18 156.162 356.519 166.285 351.349C171.225 348.826 176.308 346.639 181.503 344.701C182.338 344.39 183.178 344.111 184.02 343.845C189.434 340.388 196.005 337.082 202.578 337.212C203.024 337.22 203.386 337.39 203.656 337.645C203.973 337.701 204.29 337.768 204.607 337.861C205.307 338.064 206.047 338.833 205.947 339.622L205.913 339.885C205.894 340.013 205.871 340.137 205.831 340.258C206.066 340.293 206.296 340.349 206.522 340.427C212.811 338.648 218.999 335.929 225.135 333.735L226.533 333.241C231.673 331.437 236.946 329.669 241.162 326.1C245.357 322.549 248.511 317.949 250.791 312.977C253.601 306.851 254.858 300.214 257.165 293.925ZM383.074 617.03C384.319 616.102 385.791 617.179 386.257 618.327C387.787 622.095 387.031 627.95 384.875 631.281C382.641 634.733 377.292 633.37 377.163 629.189C377.028 624.83 379.559 619.65 383.074 617.03ZM395.936 512.989C396.048 512.499 396.807 512.504 396.921 512.989C397.958 517.41 397.933 522.171 398.238 526.704L398.273 527.207C398.638 532.206 398.945 537.219 399.164 542.226C399.593 552.078 400.107 561.931 400.682 571.776C400.968 576.657 401.274 581.539 401.6 586.418C402.622 585.848 403.675 585.347 404.766 584.905C406.401 584.244 407.993 584.168 409.749 584.186C411.888 584.208 413.499 586.092 413.216 588.19C412.907 590.476 410.898 591.455 408.811 591.129C406.5 590.766 404.179 590.205 401.845 589.973C402.105 593.746 402.374 597.518 402.658 601.288C403.036 606.279 403.528 611.264 403.874 616.257C403.907 616.733 403.942 617.21 403.979 617.689C405.37 616.964 406.848 616.593 408.523 616.137L408.958 616.014C411.39 615.315 413.991 614.349 416.241 615.986C417.754 617.086 418.056 618.898 416.803 620.349C414.903 622.552 412.092 622.125 409.467 622.012L408.055 621.961C406.724 621.908 405.497 621.823 404.267 621.487C404.493 624.74 404.612 628.005 404.213 631.21C403.998 632.943 401.72 633.397 401.117 631.63C399.543 627.011 399.217 622.03 398.641 617.192C398.103 612.674 397.776 608.123 397.423 603.585L397.316 602.224C396.524 592.239 395.889 582.249 395.426 572.245C394.963 562.241 394.684 552.24 394.573 542.226C394.523 537.679 394.598 533.116 394.776 528.57L394.832 527.207C395.037 522.532 394.894 517.57 395.936 512.989ZM187.829 617.767C187.889 617.128 188.4 616.334 189.16 616.433C189.861 616.524 190.582 616.481 191.275 616.597C192.19 616.748 192.926 617.289 193.776 617.63C195.159 618.183 196.666 618.469 198.084 618.922C200.745 619.772 202.195 622.578 201.093 625.197C199.934 627.951 197.022 628.576 194.506 627.42C192.523 626.51 191.044 625.054 189.711 623.369L189.333 622.889C188.758 622.165 188.106 621.357 187.865 620.48C187.631 619.625 187.746 618.636 187.829 617.767ZM317.118 604.82C320.432 604.353 323.263 605.488 326.33 606.557L326.58 606.644C329.701 607.723 334.256 608.47 335.855 611.669C336.821 613.598 336.071 616.16 333.8 616.731C330.202 617.634 326.977 615.001 324.002 613.229L323.846 613.137C320.975 611.453 318.012 610.037 316.179 607.132C315.689 606.358 316.114 604.962 317.118 604.82ZM201.41 340.865C200.082 341.163 198.754 341.426 197.428 341.68C192.382 344.388 187.484 347.198 182.274 349.611C176.746 352.172 171.239 354.816 165.988 357.913C155.38 364.171 146.635 372.307 139.409 382.279C126.927 399.506 117.642 419.372 110.997 439.529C109.29 444.708 107.762 449.945 106.411 455.226C108.8 453.013 111.63 451.652 114.802 450.487C116.147 449.993 117.82 450.829 118.502 451.994C118.808 452.518 118.981 453.036 118.949 453.65C118.879 455.005 117.998 456.545 116.544 456.814C113.155 457.439 109.859 458.657 106.591 459.729C106.095 459.891 105.669 459.83 105.329 459.638C102.085 473.4 100.055 487.445 99.3362 501.575C98.7281 513.537 99.1032 525.593 100.426 537.538C101.443 537.08 102.438 536.651 103.553 536.391C104.998 536.055 106.421 535.645 107.831 535.182C111.901 533.845 113.757 540.574 109.597 541.599C108.049 541.981 106.492 542.298 104.914 542.529C103.539 542.731 102.323 542.642 101.027 542.431C102.017 549.883 103.37 557.282 105.093 564.575L105.473 566.171C107.711 575.486 110.319 584.888 114.091 593.691C115.942 598.01 118.392 602.111 121.416 605.711C122.903 607.481 124.552 608.999 126.351 610.437C127.848 611.634 132.939 614.231 138.967 614.231C144.996 614.231 146.628 613.66 149.669 612.611C155.685 610.538 161.396 607.228 167.037 604.28L167.62 603.977C170.114 602.685 172.599 601.374 175.078 600.051C174.765 597.521 175.313 595.396 176.629 593.059C178.052 590.531 181.579 591.79 181.841 594.375L181.849 594.474C181.889 595.057 181.986 595.651 182.108 596.243C198.679 587.154 214.9 577.427 230.862 567.292C241.144 560.763 251.317 554.039 261.341 547.119C266.352 543.659 271.32 540.137 276.238 536.546C278.814 534.665 281.379 532.769 283.931 530.857C284.994 530.06 286.037 529.223 287.103 528.422C286.844 528.098 286.591 527.774 286.347 527.454C282.368 522.237 279.786 516.019 278.5 509.604C277.723 505.733 277.348 501.715 277.234 497.768L277.184 496.053C277.105 493.161 277.085 490.135 277.617 487.334C276.893 487.733 276.153 488.123 275.416 488.542C272.77 490.043 270.121 491.54 267.469 493.031C262.157 496.014 256.829 498.963 251.434 501.794C241.798 506.85 232.066 511.658 222.072 515.968L217.209 518.067C208.769 521.702 200.26 525.272 191.485 527.974C186.536 529.497 181.549 530.8 176.528 531.963L178.559 534.344C179.935 535.959 179.959 538.276 178.2 539.635C176.47 540.972 174.15 540.415 172.998 538.641L170.897 535.405C170.448 534.714 170.194 534.066 170.049 533.384C167.736 533.868 165.418 534.334 163.093 534.784L158.697 535.624C152.421 536.837 146.336 539.238 140.726 542.312C138.776 543.381 138.233 541.305 140.299 539.858C146.341 535.629 153.388 533.236 160.66 531.227L161.017 531.129C163.685 530.397 166.348 529.635 169.005 528.844C168.713 527.786 168.544 526.688 168.578 525.476C168.653 522.779 168.891 520.071 169.034 517.375C169.334 511.717 169.718 506.076 170.167 500.428C170.339 498.252 170.532 496.07 170.753 493.89C169.328 493.125 168.099 492.11 166.511 491.61L166.242 491.532C164.543 491.073 165.117 488.881 166.626 488.693C167.993 488.524 169.354 488.601 170.702 488.891C170.911 488.937 171.108 488.988 171.297 489.045C171.544 487.026 171.819 485.012 172.131 483.009C172.956 477.717 173.54 472.142 175.259 467.058C175.386 466.681 175.944 466.547 176.151 466.941C178.651 471.703 178.738 477.544 179.02 482.846L179.054 483.48C179.386 489.264 179.405 495.106 179.298 500.898C179.188 506.868 178.984 512.822 178.717 518.787C178.609 521.188 178.613 523.68 178.205 525.977C193.079 521.135 207.691 515.339 221.697 508.477C231.576 503.636 241.371 498.602 251.053 493.378C255.905 490.761 260.779 488.187 265.625 485.56C267.323 484.639 269.02 483.716 270.716 482.79L273.259 481.402C275.64 480.101 277.626 478.807 280.399 478.716C281.225 478.688 281.966 479.076 282.492 479.663C283.982 478.605 285.704 477.955 287.512 477.97C290.232 474.208 292.994 470.476 295.866 466.825L297.987 464.122C301.66 459.459 305.55 454.725 310.232 451.176C312.322 449.592 314.621 448.404 317.018 447.423C316.454 447.285 315.902 447.007 315.41 446.55C313.12 444.424 312.805 440.475 312.34 437.509C311.857 434.432 312.044 431.679 312.52 428.612C312.705 427.421 314.676 427.173 315.158 428.267C316.171 430.575 317.245 432.787 318.168 435.12L318.44 435.825C319.43 438.452 321.54 441.216 321.4 444.066C321.363 444.847 321.101 445.527 320.698 446.075C322.71 445.405 324.751 444.809 326.761 444.187C333.087 442.23 339.437 440.327 345.884 438.809C347.6 438.405 349.325 438.03 351.057 437.685C351.965 433.372 353.287 429.138 354.846 424.98C353.37 424.223 352.414 422.953 351.143 421.824C349.953 420.767 349.136 419.479 348.121 418.265C347.197 417.161 347.716 415.165 349.376 415.229L349.847 415.249C351.567 415.329 353.233 415.507 354.793 416.311L355.348 416.598C356.111 416.994 356.945 417.448 357.688 417.985C358.659 415.747 359.669 413.53 360.69 411.336L362.015 408.499C365.449 401.114 368.875 393.448 373.187 386.572C375.104 383.515 377.655 381.606 381.317 381.311C385.088 381.007 389.008 381.4 392.784 381.535C397.161 381.692 401.537 381.878 405.91 382.108C404.789 380.932 403.766 379.623 402.641 378.495C400.772 376.624 398.798 374.85 396.722 373.211C392.615 369.967 388.099 367.293 383.408 364.992C378.716 362.689 373.886 360.682 369.482 357.837C366.695 356.038 364.204 353.773 361.931 351.322C360.5 366.777 353.047 381.136 341.851 391.924C330.221 403.128 314.15 409.283 298.429 411.901C282.393 414.572 265.657 413.592 250.317 408.011C242.407 405.133 234.821 401.021 228.056 395.864C227.982 396.312 227.892 396.756 227.716 397.173C227.481 397.733 227.192 398.21 226.861 398.702L226.272 399.565C225.9 400.108 225.521 400.646 225.098 401.15C224.076 402.369 222.627 402.903 221.067 402.898C218.079 402.888 215.816 399.954 216.62 397.053C217.125 395.229 218.207 394.132 219.895 393.418C220.428 393.192 220.972 393.003 221.519 392.817L221.929 392.678C222.482 392.489 223.03 392.308 223.599 392.203C220.396 389.372 217.423 386.293 214.762 382.971C206.414 372.551 198.18 357.959 200.971 344.121C201.019 343.883 201.233 343.734 201.463 343.696C201.625 342.725 202.141 341.785 202.848 341.154C202.372 341.029 201.892 340.932 201.41 340.865ZM288.096 580.114C289.749 579.193 291.457 581.381 290.113 582.732L288.107 584.742C286.246 586.615 284.434 588.509 282.84 590.644L282.454 591.165C280.303 594.096 278.009 597.491 274.484 598.587C270.221 599.911 266.124 594.711 268.593 590.913C270.75 587.593 274.903 586.34 278.483 584.968C281.87 583.67 284.929 581.876 288.096 580.114ZM150.565 564.795C151.536 563.521 154.069 564.192 153.405 565.994C151.25 571.845 150.371 579.824 144.928 583.711C143.172 584.964 140.413 584.388 138.967 582.941C137.324 581.296 137.258 578.979 138.198 576.972C139.344 574.524 142.163 572.749 144.138 570.884L144.315 570.714C146.441 568.647 148.74 567.187 150.565 564.795ZM378.072 571.529C379.806 570.78 384.324 569.325 385.663 571.048C385.726 571.111 385.779 571.18 385.823 571.255C386.151 571.827 386.2 572.633 385.823 573.2C384.262 575.549 382.637 577.301 380.418 578.973L380.169 579.158C377.754 580.936 375.485 583.025 372.542 583.826C368.463 584.938 365.614 579.824 368.479 576.838C370.787 574.432 374.31 573.183 377.368 571.841L378.072 571.529ZM214.264 538.096C213.582 536.861 214.976 535.346 216.238 536.119C219.84 538.323 224.036 539.977 228.081 541.165C229.718 541.645 231.195 543.307 231.074 545.1L231.055 545.372C231.006 546.005 230.919 546.634 230.517 547.161C229.108 549.006 227.093 549.717 224.94 548.625C220.143 546.191 216.86 542.793 214.264 538.096ZM319.533 534.356C319.445 533.837 319.825 533.436 320.352 533.536C323.395 534.114 326.207 535.586 328.82 537.278C330.222 538.186 331.574 539.182 332.973 540.099C334.7 541.231 335.347 542.165 335.603 544.242C335.771 545.613 334.493 546.865 333.321 547.243C330.126 548.275 326.466 544.89 324.302 542.691L324.204 542.592C321.939 540.279 320.07 537.545 319.533 534.356ZM410.951 530.764C410.257 528.888 412.648 527.332 414.212 528.254C415.684 529.121 417.282 529.84 418.671 530.834C419.947 531.748 421.111 532.831 422.335 533.821L422.94 534.301C425.185 536.108 428.89 540.577 425.68 543.17C422.625 545.637 418.575 542.486 416.525 540.182L416.382 540.019C415.202 538.654 413.748 537.172 412.892 535.578C412.086 534.078 411.54 532.356 410.951 530.764ZM380.825 385.531C376.999 386.275 375.44 391.004 373.828 394.086C370.026 401.361 366.529 408.769 363.017 416.186C361.936 418.468 360.883 420.767 359.821 423.062C359.756 423.242 359.672 423.419 359.574 423.594C357.398 428.285 355.157 432.946 352.538 437.399C354.935 436.95 357.345 436.567 359.763 436.265C359.641 433.985 361.201 430.933 361.972 429.013L362.036 428.851C362.998 426.391 364.006 422.516 366.482 421.239C367.307 420.814 368.189 421.347 368.253 422.256C368.44 424.964 365.795 428.063 364.502 430.361C363.721 431.752 362.959 433.148 362.216 434.56C361.937 435.088 361.705 435.608 361.419 436.073C362.667 435.938 363.916 435.818 365.168 435.73L365.984 435.674C370.626 435.368 375.557 435.28 379.751 437.573C383.642 439.699 385.631 444.237 383.493 448.37C380.83 453.519 374.965 454.202 369.808 454.619C363.366 455.139 356.909 456.079 350.513 456.995C343.897 457.942 337.667 460.385 331.149 461.64C330.543 461.757 330.166 460.963 330.722 460.624C335.863 457.49 342.113 455.766 347.861 454.009L348.325 453.867C351.443 452.908 354.49 451.812 357.715 451.268C360.846 450.741 363.997 450.313 367.155 449.987L367.461 449.959C370.938 449.667 379.808 449.767 379.433 444.612C379.185 441.2 373.647 440.611 371.119 440.571C359.528 440.385 347.854 443.465 336.839 446.766L334.38 447.504C329.869 448.863 325.352 450.261 320.927 451.855C315.911 453.659 311.96 456.474 308.307 460.326C304.257 464.598 300.335 468.965 296.133 473.093C293.484 475.695 290.801 478.25 288.096 480.785C287.486 481.577 286.997 482.439 286.658 483.557C286.086 485.445 286.218 487.2 286.434 489.14C286.978 494.038 287.099 498.987 287.781 503.87C288.414 508.394 289.298 513.084 291.174 517.28C291.917 518.942 292.884 520.574 293.985 522.034L294.873 523.191C295.261 523.693 295.694 524.243 296.149 524.76C296.817 523.945 297.783 523.414 298.906 523.547C301.292 523.828 303.168 523.761 305.509 523.212C307.321 522.787 309.119 522.29 310.923 521.829C314.465 520.924 318.04 520.101 321.546 519.062L322.148 518.88C324.761 518.078 327.375 517.073 329.549 515.383C332.076 513.42 332.853 510.589 334.725 508.14C338.721 502.912 347.357 503.021 353.203 501.589C358.173 500.373 362.954 498.452 366.393 494.842L366.594 494.627C366.441 493.983 366.689 493.256 367.286 492.922L367.416 492.85C367.649 492.719 367.9 492.665 368.147 492.67C368.466 492.201 368.774 491.716 369.054 491.2C369.284 490.775 369.859 491.088 369.784 491.508C369.739 491.759 369.676 492.004 369.617 492.249C372.948 491.391 376.606 491.555 379.988 491.557L384.377 491.542C385.137 491.532 386.269 491.494 386.37 491.448L386.473 491.402C386.746 491.283 386.358 491.48 386.549 491.226C386.76 490.946 386.966 490.662 387.17 490.376C387.897 489.357 388.585 488.307 389.26 487.248C381.91 489.122 374.297 490.289 366.792 491.261C358.741 492.306 350.584 493.031 342.461 493.038C340.222 493.041 340.242 489.656 342.461 489.571C351.062 489.242 359.619 488.786 368.162 487.682C372.58 487.111 376.98 486.394 381.355 485.556C383.044 485.233 384.729 484.89 386.41 484.527L387.67 484.252C388.46 484.077 390.694 483.825 391.783 483.093C391.997 482.725 392.211 482.357 392.423 481.989C392.319 480.697 389.038 480.87 388.269 480.868C386.088 480.864 383.907 480.881 381.726 480.887C377.363 480.9 373.002 480.862 368.639 480.827C359.923 480.756 351.174 480.451 342.465 480.824C340.351 480.914 339.24 477.519 341.33 476.626C350.554 472.682 360.794 471.825 370.644 470.613C375.824 469.976 381.006 469.24 386.07 467.95L387.322 467.631C390.503 466.815 394.015 465.819 396.694 463.873C392.668 462.242 387.664 462.429 383.49 462.198L383.171 462.18C377.327 461.82 371.473 461.636 365.619 461.628C353.64 461.611 341.657 462.036 329.691 462.604C329.391 462.619 329.329 462.144 329.621 462.08C341.919 459.393 354.419 458.099 367.005 457.9C372.867 457.807 378.731 457.89 384.588 458.149L386.737 458.249C391.73 458.464 397.271 458.522 401.449 461.542C402.086 462.002 402.421 462.589 402.474 463.211C408.077 452.027 413.252 440.61 418.448 429.268C422.487 420.449 426.376 411.556 430.562 402.806L431.918 399.975C433.732 396.198 435.592 392.42 437.656 388.78C429.936 387.747 422.173 387.029 414.405 386.48C407.327 385.979 384.233 384.87 380.825 385.531ZM377.407 506.743C378.287 506.253 379.636 506.652 379.853 507.739C380.014 508.549 380.29 509.447 380.29 510.275C380.29 511.267 379.936 512.345 379.747 513.316C379.312 515.547 378.778 517.361 377.644 519.349C376.936 520.593 375.504 521.437 374.065 521.404C372.926 521.378 371.916 521.072 371.134 520.189C370.197 519.131 369.554 517.575 370.068 516.15C371.414 512.418 373.888 508.699 377.407 506.743ZM190.671 503.019C192.731 499.406 197.614 496.177 201.876 496.497C208.274 496.977 209.58 505.604 203.385 507.663C199.682 508.893 194.588 507.629 191.348 505.604C190.475 505.059 190.155 503.925 190.671 503.019ZM124.908 490.675C124.441 489.994 125.214 489.216 125.911 489.369C127.457 489.709 129.124 489.858 130.639 490.32C132.19 490.792 133.691 491.575 135.228 492.115C138.446 493.243 141.884 493.81 144.999 495.173C146.244 495.718 147.223 497.523 147.108 498.854L147.079 499.166C147.01 499.826 146.896 500.403 146.527 501.007C145.535 502.628 143.571 503.465 141.718 502.966C138.279 502.041 134.919 499.665 131.987 497.691L131.445 497.33C130.164 496.485 128.787 495.601 127.754 494.514C126.677 493.378 125.791 491.962 124.908 490.675ZM243.116 477.535C242.72 476.107 244.493 475.164 245.527 476.129C247.593 478.056 249.753 479.843 251.776 481.819L251.912 481.954C253.361 483.411 255.469 486.221 253.585 488.107C251.17 490.525 247.808 486.938 246.513 485.068C244.87 482.697 243.884 480.308 243.116 477.535ZM401.203 465.733C398.138 468.983 393.417 470.477 389.259 471.715C384.33 473.182 379.252 474.059 374.167 474.779C369.255 475.476 364.38 476.098 359.546 476.897C363.203 476.943 366.86 476.97 370.508 477.035C374.716 477.112 378.921 477.203 383.128 477.325C386.192 477.414 389.786 476.994 392.697 478.134C393.222 478.339 393.712 478.623 394.14 478.969C396.588 474.612 398.934 470.194 401.203 465.733ZM212.173 435.337C215.372 434.32 218.38 432.97 221.771 433.32C222.672 433.413 223.317 434.291 222.825 435.159C221.218 437.991 218.605 439.589 216.033 441.484L215.806 441.651C212.991 443.749 209.968 445.659 206.906 447.38C201.634 450.342 196.91 441.864 202.234 439.377C205.437 437.879 208.802 436.41 212.173 435.337ZM269.762 427.977C274.655 428.299 279.546 428.518 284.446 428.716C290.122 428.946 288.213 437.692 283.472 435.922C278.788 434.173 274.104 432.446 269.378 430.815C267.94 430.319 268.055 427.953 269.671 427.973L269.762 427.977ZM144.248 412.418C145.516 412.329 146.795 412.607 148.065 412.73L149.417 412.861C152.203 413.139 154.815 413.481 157.472 414.616C162.375 416.712 159.742 424.603 154.82 424.422C151.182 424.288 148.072 422.724 145 420.903C142.315 419.311 140.669 417.319 138.855 414.819C138.255 413.991 139.092 413.063 139.909 412.98C141.35 412.833 142.806 412.519 144.248 412.418ZM390.002 396.302C389.191 401.371 387.177 406.122 384.143 410.258C382.618 412.337 379.941 412.416 378.43 410.258C376.292 407.207 377.61 403.71 379.221 400.779L379.697 399.921C380.418 398.634 381.526 396.757 382.792 395.46L382.813 395.328C383.491 390.02 390.838 391.08 390.002 396.302ZM192.072 363.771C193.292 362.67 195.539 363.001 195.935 364.792C196.489 367.299 196.826 370.125 196.463 372.671C196.267 374.05 196.193 375.599 195.651 376.885C195.069 378.267 193.948 379.331 192.892 380.37C190.785 382.445 186.342 381.759 185.778 378.489L185.706 378.088C185.422 376.541 185.059 374.887 185.479 373.354C185.797 372.197 186.506 371.017 187.093 369.943L187.216 369.715C188.392 367.523 190.224 365.436 192.072 363.771ZM363.556 369.106L363.997 369.111C367.402 369.178 373.628 370.008 373.661 374.221C373.669 375.215 372.934 376.244 371.95 376.472C369.914 376.945 368.598 375.74 367.148 374.524C365.961 373.529 364.579 372.734 363.142 372.162C361.591 371.544 361.692 369.103 363.556 369.106Z" fill="black"/>
<path fill-rule="evenodd" clip-rule="evenodd" d="M364.429 200.96C363.304 186.38 365.048 171.098 359.434 157.24C349.646 134.247 322.198 126.58 300.919 117.826C292.395 115.304 263.71 114.952 253.729 111.613C231.138 104.058 225.741 95.0558 207.791 109.442C204.76 111.899 202.865 114.57 201.482 118.219L201.539 118.235C201.144 119.756 201.567 121.274 202.457 122.434C194.674 130.4 191.417 142.343 195.41 152.947C208.442 180.542 207.829 195.463 203.63 225.129C198.147 252.825 210.677 262.941 231.428 278.011C230.583 279.651 230.408 281.831 231.509 283.279C255.505 317.043 300.748 333.165 339.513 316.027C355.248 309.014 362.273 292.234 366.282 277.093C370.952 260.14 372.387 242.275 368.585 225.006C367.052 217.019 365.054 209.089 364.429 200.96Z" fill="white"/>
<path fill-rule="evenodd" clip-rule="evenodd" d="M226.019 39.4263C228.931 38.9884 231.131 40.7979 232.177 43.3484L232.232 43.4858C232.568 44.3536 232.943 45.1977 233.345 46.0276C240.634 42.4472 251.034 43.3672 255.647 50.6182C258.938 55.7969 256.93 61.9429 255.689 67.4345L254.875 71.0529C256.449 72.0563 257.637 73.8531 257.581 75.7137L257.574 75.8569L257.243 80.9028C258.294 79.8358 259.255 78.6739 260.113 77.4361C260.705 76.3501 261.344 75.2831 262.031 74.2493C266.07 68.1649 275.14 73.4526 271.806 79.9685C271.166 81.2253 270.446 82.4156 269.674 83.5632C268.803 85.2562 268.088 86.9967 267.538 88.7845C269.116 89.4722 270.328 90.9992 270.456 93.304C270.754 98.6865 267.932 103.178 263.442 105.999C262.121 106.829 260.757 106.99 259.521 106.682C259.303 106.976 259.085 107.27 258.876 107.569C260.667 109.025 262.282 110.685 263.669 112.525C267.846 111.899 272.047 111.605 276.248 111.595C281.382 109.077 287.529 109.129 293.046 110.073C296.598 110.68 300.008 111.861 303.503 112.71C307.188 113.601 310.929 113.634 314.656 114.241C319.354 115.005 323.474 117.177 326.065 120.644C328.911 120.729 331.904 121.896 334.386 123.479C340.164 127.169 345.908 130.911 351.672 134.624C353.884 136.05 354.711 138.325 354.304 140.864L354.277 141.026L354.083 142.079L354.539 142.727C356.302 145.221 358.222 147.834 359.363 150.587C361.475 153.636 363.384 156.832 365.075 160.128C367.353 164.558 369.233 169.252 370.507 174.071C370.824 175.289 371.141 176.518 371.35 177.76C371.648 179.515 371.189 180.876 370.938 182.559C370.625 184.694 370.511 186.856 370.18 188.995C369.957 190.413 368.754 191.11 367.495 191.148C367.968 194.757 368.309 198.389 368.636 201.994C369.095 207.144 369.408 212.308 369.678 217.473C371.07 219.498 373.917 221.1 375.972 221.655C378.818 222.419 381.802 221.589 384.492 220.617C386.183 220.005 387.57 222.134 386.746 223.557C384.156 228.024 378.615 228.005 374.419 226.028C372.643 225.193 371.085 223.984 369.929 222.409C370 223.908 370.076 225.406 370.152 226.91L370.222 228.271C371.075 244.173 372.917 260.622 369.934 276.368C364.767 303.641 342.227 324.407 314.694 326.02C300.246 326.866 288.214 322.593 282.231 320.209C276.248 317.825 278.573 312.965 282.727 314.354C289.882 316.748 303.026 320.313 314.789 318.774C342.513 315.144 366.022 301.269 363.607 241.507C363.264 233.032 362.209 224.553 361.982 216.078C361.764 207.793 361.845 199.504 361.48 191.224L361.359 188.399C361.216 185.098 361.064 181.781 360.817 178.476C360.519 177.196 360.272 175.896 359.908 174.64C358.918 171.221 357.625 167.896 356.02 164.724C355.664 164.994 355.267 165.188 354.836 165.264C351.563 165.852 348.494 165.686 345.43 164.32C344 163.69 342.74 162.85 341.566 161.812C341.007 161.323 340.633 160.849 340.339 160.356C338.857 160.38 337.374 159.934 336.446 158.867C335.387 157.651 335.211 156.394 335.626 155.232L335.669 155.116L335.565 155.078C334.315 158.317 331.824 161.167 329.091 163.092C324.772 166.146 319.368 167.028 314.187 167.109C308.466 167.194 302.433 166.312 296.787 165.411C295.296 165.174 293.813 164.904 292.359 164.539C292.303 164.596 292.246 164.662 292.184 164.719C287.339 169.362 280.524 170.557 274.377 167.906C270.825 166.374 267.846 163.908 265.213 161.081C265.175 162.561 265.099 164.041 264.972 165.506L264.919 166.088C264.656 168.817 264.152 171.712 262.092 173.682C258.763 176.873 253.932 175.593 250.091 173.516C250.096 173.615 250.096 173.72 250.096 173.824C251.133 177.352 252.175 180.885 253.217 184.418L253.441 185.171C254.199 187.68 255.03 190.192 255.258 192.817C255.694 197.835 252.36 202.79 246.79 201.107C243.869 200.227 241.529 197.767 239.283 195.797L237.868 194.572C241.529 206.556 244.067 218.966 244.304 231.472C244.318 232.15 243.736 232.662 243.092 232.686C241.586 232.748 239.966 232.449 238.45 231.847C238.365 231.842 238.28 231.837 238.19 231.823C235.604 231.448 233.203 230.514 231.086 229.134C231.574 230.685 231.792 232.349 231.664 234.09C231.631 234.512 230.972 234.659 230.878 234.194C229.656 228.176 222.623 223.628 216.561 224.78C210.054 226.018 205.261 231.624 204.087 238.002C202.827 244.855 205.238 252.779 209.703 258.067C211.759 260.505 214.463 262.539 217.674 263.051C219.142 263.284 220.667 263.203 222.093 262.786C222.699 262.605 223.267 262.354 223.845 262.117C224.688 261.775 225.673 261.723 226.469 261.363C228.273 260.552 230.087 262.216 229.173 264.071C228.377 265.688 227.662 266.779 226.341 267.613C227.411 268.922 228.382 270.743 228.742 271.232C230.579 273.717 232.445 276.064 234.539 278.336C236.67 280.64 238.995 282.746 241.453 284.695L242.486 285.513C244.854 287.393 246.915 289.135 248.585 291.832C249.902 293.962 248.197 296.85 245.73 296.817C238.01 296.707 232.398 289.916 228.401 283.984C227.833 283.135 227.297 282.239 226.8 281.319C226.62 281.608 226.421 281.878 226.199 282.125L226.639 283.31C227.946 286.801 222.315 289.082 220.681 285.824C219.493 283.462 218.114 281.214 216.58 279.09C215.675 278.962 214.79 278.412 214.297 277.7C213.052 275.893 211.655 274.068 210.475 272.142C209.822 271.521 209.149 270.923 208.463 270.34C208.264 270.516 208.06 270.691 207.866 270.876C207.004 272.844 205.938 274.641 204.617 276.334L204.334 276.696C201.803 279.89 198.505 283.16 194.425 283.941C193.18 284.178 191.982 282.627 193.085 281.636C195.941 279.066 199.318 277.316 201.951 274.447C203.248 273.033 204.439 271.477 205.464 269.845L205.697 269.468C205.867 269.188 206.043 268.908 206.223 268.623C205.034 267.812 203.845 266.997 202.656 266.181C199.384 268.981 195.123 270.261 191.503 272.58L191.143 272.816C187.871 275.007 184.423 270.16 187.047 267.499C189.939 264.578 192.353 261.094 194.916 257.846C193.711 255.624 193.141 252.996 192.927 250.34C192.843 249.589 192.777 248.836 192.711 248.084C190.873 248.113 189.026 247.482 187.464 246.396L186.872 245.974C184.973 246.581 182.979 246.875 181.07 246.823C176.581 246.69 174.743 241.554 177.551 238.306C180.417 234.986 185.432 234.26 189.405 235.873C189.533 235.806 189.666 235.735 189.794 235.664C189.604 234.792 189.646 234 189.862 233.305L189.799 232.881C188.926 231.538 188.351 230.006 188.133 228.386C187.961 227.103 187.996 225.832 188.292 224.565C188.391 224.144 188.596 223.707 188.753 223.267C188.43 222.451 188.24 221.606 188.181 220.758C188.091 220.65 188.001 220.539 187.915 220.42C185.944 217.648 186.342 214.308 188.219 212.065C188.227 211.922 188.24 211.779 188.26 211.638C188.15 211.39 188.049 211.14 187.957 210.887C186.124 209.035 184.778 206.807 185.029 204.046C185.176 202.421 185.843 200.958 186.852 199.865C186.673 199.335 186.656 198.721 186.873 198.208C185.262 193.918 185.466 188.752 186.625 183.954C186.37 183.223 186.237 182.431 186.265 181.592C186.398 178.031 189.476 174.758 193.123 174.801C193.562 174.805 193.973 174.862 194.368 174.946L194.373 174.861C194.513 173.792 194.807 172.805 195.235 171.918C195.025 171.842 194.829 171.732 194.658 171.587C192.322 172.835 189.849 173.789 187.257 174.439C185.35 174.917 183.398 172.748 184.583 170.956C185.133 170.125 185.739 169.378 186.393 168.696C185.464 168.701 184.52 168.764 183.566 168.887C181.852 169.11 179.938 167.939 178.825 166.355C177.442 167.702 176.055 169.044 174.667 170.386C171.153 173.796 165.844 171.287 165.29 166.791C164.243 166.511 163.268 166.037 162.411 165.359C156.87 167.768 150.907 169.091 144.812 169.343C140.436 169.523 137.879 164.42 139.925 160.816C141.298 158.397 143.003 156.225 144.968 154.338C141.918 155.272 138.769 155.945 135.553 156.377C133.815 156.609 131.357 155.168 130.661 153.57C127.999 147.424 128.227 141.017 131.291 135.037C131.409 134.799 131.542 134.572 131.67 134.344C131.987 133.552 132.333 132.77 132.707 132.001C128.937 128.065 128.61 122.213 130.642 117.314C129.828 115.991 129.515 114.398 130.069 112.956C131.646 108.807 133.919 104.975 136.789 101.684C136.515 101.153 136.273 100.588 136.069 99.9812C134.455 95.0729 136.325 89.1497 140.1 85.7305C142.472 83.5775 145.2 82.2875 148.113 81.4624C149.34 79.2904 150.917 77.3318 152.754 75.6815C152.825 75.525 152.896 75.3685 152.977 75.212C155.837 69.8152 161.047 66.9224 166.63 66.2537C166.848 64.1434 168.269 62.1279 170.334 61.4734C170.902 59.6476 171.75 57.9025 172.915 56.3185C174.748 53.824 177.793 52.6479 180.663 54.284C182.235 55.1804 183.741 56.2094 185.153 57.3476C185.786 57.0499 186.505 56.8573 187.316 56.7959L187.52 56.7833L192.19 56.5461C194.146 55.6783 196.097 54.7678 198.053 53.881C199.228 52.9088 200.539 52.0978 201.97 51.4956C203.589 50.8174 205.247 50.4333 206.909 50.3052C208.259 49.8642 209.618 49.4753 211.001 49.1718C214.25 48.4605 217.65 48.0621 221.022 48.0953C221.091 47.2214 221.126 46.337 221.119 45.4421L221.112 44.9938C221.037 42.1247 223.324 39.8342 226.019 39.4263ZM222.746 268.979C222.282 269.079 221.813 269.159 221.344 269.216C221.486 269.567 221.629 269.918 221.766 270.269C222.145 270.482 222.528 270.686 222.912 270.876C222.798 270.231 222.732 269.581 222.746 268.979ZM198.414 261.739L198.1 262.319C198.049 262.414 197.998 262.508 197.949 262.601C198.617 262.548 199.289 262.563 199.952 262.639L199.95 262.568C199.865 262.539 199.78 262.512 199.698 262.473C199.241 262.253 198.816 262.006 198.414 261.739ZM211.565 235.252C215.755 235.496 219.305 236.139 223.115 237.975L223.442 238.135C226.81 239.809 232.379 242.901 231.91 247.335C231.778 248.597 230.864 249.924 229.424 249.825C225.479 249.555 223.225 245.571 220.553 243.086C217.859 240.582 214.548 238.007 211.285 236.285C210.824 236.043 211.006 235.276 211.508 235.251L211.565 235.252ZM192.564 176.831C191.56 176.864 191.896 177.841 192.413 177.025C192.455 176.959 192.507 176.892 192.564 176.831ZM246.76 111.613C237.251 111.864 227.682 117.486 220.558 123.168C214.361 128.112 209.01 133.993 204.272 140.331C203.053 143.487 202.006 146.71 201.122 149.956C200.54 152.099 200.175 154.267 199.687 156.429L199.535 157.092C199.152 157.809 198.868 158.581 198.66 159.378C199.524 160.245 200.644 160.866 201.877 161.16C202.274 161.255 202.604 161.46 202.865 161.733C203.858 160.074 204.726 158.323 205.23 156.467L205.249 156.381C207.157 153.251 209.229 150.219 211.451 147.291C217.579 139.205 224.328 131.835 232.441 125.704C238.593 121.056 245.469 117.414 252.781 115.048C250.992 113.602 248.959 112.458 246.76 111.613Z" fill="black"/>
<path fill-rule="evenodd" clip-rule="evenodd" d="M320.899 287.825C317.716 286.524 314.875 284.355 312.798 281.584C312.076 280.62 311.889 279.603 312.041 278.672C312.211 277.626 312.829 276.678 313.672 276.042C314.518 275.404 315.575 275.089 316.598 275.25C317.487 275.389 318.371 275.876 319.071 276.887L319.217 277.089C320.452 278.761 322.061 280.134 323.894 281.018C325.661 281.871 327.637 282.269 329.682 282.037C333.577 281.597 336.261 279.488 339.115 276.623C339.468 276.262 339.822 275.889 340.178 275.51C340.402 275.166 340.714 274.946 341.06 274.83C341.444 274.701 341.879 274.708 342.277 274.847C342.661 274.982 343.004 275.236 343.234 275.574C343.453 275.896 343.577 276.293 343.537 276.75C343.276 279.718 341.726 282.368 339.525 284.448C337.08 286.758 333.839 288.356 330.788 288.917C327.426 289.534 324.001 289.092 320.899 287.825ZM332.373 242.033C335.95 244.21 341.399 249.285 337.551 254.682C333.023 259.44 326.503 253.985 323.29 251.517C320.311 249.605 316.963 254.523 319.727 256.756C342.945 273.968 352.367 242.602 334.182 239.474C332.18 239.129 331.436 241.36 332.373 242.033ZM290.768 222.01C291.163 217.099 298.633 215.984 299.376 220.844C300.041 225.197 299.258 229.197 297.3 233.116C295.428 236.861 290.725 235.114 290.37 231.704C289.893 227.133 290.522 225.066 290.768 222.01ZM347.629 219.836C348.67 218.47 350.174 217.538 351.976 218.065C357.604 219.712 355.945 227.714 353.968 231.609C352.894 233.724 349.422 234.26 347.853 232.398C345.296 229.361 344.071 223.296 347.323 220.304C347.411 220.15 347.509 219.994 347.629 219.836ZM297.22 200.52L298.109 200.364C300.86 199.888 304.28 199.43 306.226 201.645C307.258 202.819 307.613 205.001 306.226 206.125C303.786 208.103 301.088 207.336 298.164 207.504C295.755 207.642 293.439 208.041 291.118 208.706C286.026 210.163 281.876 212.824 277.527 215.745C276.957 216.128 276.374 215.397 276.647 214.863C279.157 209.939 284.022 205.894 288.896 203.429C291.496 202.113 294.343 201.021 297.22 200.52ZM342.498 198.314L343.179 198.454C350.584 200.004 360.206 203.1 363.713 210.384C363.846 211.414 363.705 211.635 363.59 211.779L363.552 211.827C363.458 211.95 363.382 212.12 362.936 212.26C362.813 212.231 362.688 212.2 362.561 212.167C360.954 211.745 359.682 211.164 358.451 210.561L357.116 209.902C355.567 209.141 354.004 208.409 352.348 207.868C348.814 206.713 345.179 205.9 341.488 205.466C340.688 205.372 339.917 205.102 339.31 204.638C338.733 204.198 338.292 203.589 338.091 202.78C337.83 201.732 337.905 200.939 338.467 199.994C338.889 199.284 339.493 198.792 340.186 198.51C340.893 198.222 341.698 198.154 342.498 198.314Z" fill="black"/>
<path fill-rule="evenodd" clip-rule="evenodd" d="M382.705 229.663C378.189 260.246 346.67 263.628 341.07 233.267C341.969 232.873 342.615 232.097 342.48 230.591C342.448 223.974 344.5 216.981 350.46 213.301C356.62 209.505 363.828 209.128 370.956 209.224C384.559 208.9 384.273 220.285 382.705 229.663ZM336.135 216.362C331.866 216.182 326.466 216.333 322.641 218.937C321.59 216.102 318.858 213.075 316.098 211.457C326.357 211.757 336.917 210.746 347.253 209.961C344.779 211.65 342.477 214.187 340.981 217.12C339.593 216.379 337.605 216.448 336.135 216.362ZM317.319 232.905C305.481 273.706 275.933 255.923 272.712 250.694C266.902 242.041 265.809 221.007 270.87 215.383C278.115 210.297 288.371 211.606 296.93 211.481C312.654 211.694 323.821 216.404 317.319 232.905ZM396.682 214.139C393.466 213.718 390.029 213.633 387.038 215.051C386.118 211.133 383.227 207.857 379.964 206.415C379.569 205.919 379.628 205.653 378.279 205.727C369.993 203.233 360.722 204.553 352.76 207.11C340.185 208.17 326.992 209.006 314.312 210.467C302.433 205.126 266.586 204.343 264.358 217.509C261.556 217.089 256.783 214.881 254.429 217.876C237.156 214.944 219.309 219.019 201.962 220.834C197.595 221.639 195.346 230.317 200.303 230.198C203.089 229.441 200.217 224.795 203.969 224.445C220.707 222.615 237.078 220.018 253.986 219.714C253.398 222.638 265.17 222.828 265.343 221.121C265.369 221.133 265.395 221.142 265.421 221.153C262.512 232.009 265.137 247.631 270.394 254.362C277.76 263.176 296.251 265.705 304.45 260.034C315.027 254.8 326.03 228.526 322.939 219.798C328.548 218.017 334.094 218.552 339.915 219.458C338.582 223.228 336.282 232.508 339.592 233.313C338.984 251.737 355.729 263.233 371.165 255.675C384.526 249.394 389.198 229.516 387.563 217.45C389.226 220.668 403.192 217.164 396.682 214.139Z" fill="black"/>
</svg>
