<svg width="105" height="48" viewBox="0 0 105 48" fill="none" xmlns="http://www.w3.org/2000/svg">
<path fill-rule="evenodd" clip-rule="evenodd" d="M26.9562 5.24147V8.47839C26.9562 9.28617 26.7499 9.99101 26.2745 10.4965C25.7932 11.0081 25.1156 11.2317 24.3522 11.2317C23.5919 11.2317 22.9106 11.0084 22.4221 10.5071C21.9362 10.0083 21.7147 9.31005 21.7147 8.50625V6.9464L26.9562 5.24147ZM25.4073 7.54436L23.2636 8.25578V8.44508C23.2636 8.91425 23.3869 9.17805 23.5324 9.32527C23.6764 9.47075 23.9242 9.58531 24.3522 9.58531C24.7798 9.58531 25.0151 9.47112 25.1493 9.33132C25.288 9.18666 25.4073 8.92235 25.4073 8.44508V7.54436Z" fill="white"/>
<path fill-rule="evenodd" clip-rule="evenodd" d="M37.1369 35.4154L42.2916 30.0666C47.0671 25.1141 46.7871 16.9142 41.4604 12.3453C40.2454 11.3049 38.8757 10.5853 37.4392 10.1689V20.9659L38.736 21.7147L37.4392 23.961V29.2025C37.4392 31.5571 37.3338 33.6156 37.1369 35.4154ZM35.1927 29.2025V24.8568V9.76554C31.7624 9.50932 28.2134 10.8287 25.6327 13.5046L23.9616 15.235L22.2906 13.5046C19.7141 10.8277 16.1625 9.50842 12.7293 9.76584V29.2025C12.7293 38.739 18.1265 40.8775 24.021 40.8775C29.9634 40.8775 35.1927 38.739 35.1927 29.2025ZM10.4829 10.1697C9.04649 10.5861 7.67719 11.3055 6.463 12.3453C1.13622 16.9142 0.856307 25.1141 5.62328 30.0666L10.8044 35.4427C10.5952 33.6366 10.4829 31.5692 10.4829 29.2025V23.9236C9.62851 23.7503 8.98538 22.9948 8.98538 22.0892C8.98538 21.1835 9.62851 20.4281 10.4829 20.2545V10.1697Z" fill="white"/>
<path d="M52.247 30.7001C51.3606 30.7001 50.9172 30.2568 50.9172 29.3702V18.5698C50.9172 18.2224 51.0252 17.9408 51.2408 17.7252C51.4565 17.5095 51.738 17.4017 52.0853 17.4017H53.0916H55.2842C58.7585 17.4017 60.4956 18.7915 60.4956 21.571C60.4956 23.0205 59.9985 24.1348 59.0042 24.9134C58.0937 25.6204 56.8775 25.9738 55.3561 25.9738H53.5769V29.3702C53.5769 30.2568 53.1337 30.7001 52.247 30.7001ZM53.5769 23.8712H55.1763C56.9854 23.8712 57.8899 23.1045 57.8899 21.571C57.8899 20.8282 57.6503 20.289 57.1711 19.9535C56.7279 19.6541 56.033 19.5043 55.0865 19.5043H53.5769V21.6966V23.8712Z" fill="white"/>
<path d="M63.9997 30.7001C63.1252 30.7001 62.6879 30.2628 62.6879 29.3881V21.9483C62.6879 21.0738 63.1252 20.6365 63.9997 20.6365C64.8744 20.6365 65.3117 21.0738 65.3117 21.9483V25.6683V29.3881C65.3117 30.2628 64.8744 30.7001 63.9997 30.7001ZM64.0178 19.0191C63.5626 19.0191 63.185 18.8873 62.8856 18.6237C62.586 18.3482 62.4364 18.0007 62.4364 17.5814C62.4364 17.1501 62.586 16.8027 62.8856 16.5391C63.185 16.2755 63.5626 16.1437 64.0178 16.1437C64.4731 16.1437 64.8444 16.2755 65.1319 16.5391C65.4315 16.8027 65.5811 17.1501 65.5811 17.5814C65.5811 17.9887 65.4315 18.3302 65.1319 18.6057C64.8444 18.8813 64.4731 19.0191 64.0178 19.0191Z" fill="white"/>
<path d="M69.4578 30.7001C68.5831 30.7001 68.1458 30.2628 68.1458 29.3881V25.6683V21.7147C68.1458 20.9959 68.5233 20.6365 69.278 20.6365C69.9609 20.6365 70.3443 20.9599 70.4281 21.6068L70.4821 21.9843H70.5539C71.045 21.4812 71.5003 21.1036 71.9197 20.8521C72.4708 20.5406 73.0459 20.3848 73.6449 20.3848C74.9746 20.3848 75.8972 20.9719 76.4123 22.146C76.9395 21.5829 77.4247 21.1697 77.8681 20.9061C78.4311 20.5586 79.0122 20.3848 79.6112 20.3848C80.6534 20.3848 81.4441 20.7442 81.9833 21.4631C82.4865 22.146 82.738 23.1345 82.738 24.4284V29.3881C82.738 30.2628 82.3009 30.7001 81.4262 30.7001C80.5396 30.7001 80.0965 30.2628 80.0965 29.3881V24.7518C80.0965 23.9971 79.9825 23.4518 79.755 23.1164C79.5393 22.8049 79.1859 22.6492 78.6946 22.6492C78.1196 22.6492 77.4726 23.0266 76.7538 23.7814V29.3881C76.7538 30.2628 76.3165 30.7001 75.442 30.7001C74.5554 30.7001 74.112 30.2628 74.112 29.3881V24.7518C74.112 23.9971 73.9983 23.4518 73.7708 23.1164C73.5551 22.8049 73.2015 22.6492 72.7104 22.6492C72.1354 22.6492 71.4884 23.0266 70.7696 23.7814V29.3881C70.7696 30.2628 70.3322 30.7001 69.4578 30.7001Z" fill="white"/>
<path d="M87.9474 30.9516C87.0608 30.9516 86.342 30.6701 85.7909 30.1071C85.2398 29.544 84.9641 28.8312 84.9641 27.9686C84.9641 26.8903 85.4194 26.0577 86.3299 25.4706C87.2525 24.8716 88.726 24.4642 90.7508 24.2486C90.7029 23.0864 90.1337 22.5055 89.0435 22.5055C88.4924 22.5055 87.8874 22.6553 87.2285 22.9547C86.5935 23.2782 86.1142 23.1464 85.7909 22.5594C85.4794 21.9962 85.5931 21.5649 86.1322 21.2655C87.2704 20.6784 88.4026 20.3848 89.5288 20.3848C90.7987 20.3848 91.7572 20.7623 92.4041 21.517C93.0629 22.2598 93.3924 23.362 93.3924 24.8236V27.7708V29.6219C93.3924 30.3407 93.009 30.7001 92.2422 30.7001C91.5713 30.7001 91.1761 30.3886 91.0563 29.7656L91.0383 29.6219H90.9844C89.9541 30.5084 88.9416 30.9516 87.9474 30.9516ZM88.81 28.8851C89.4448 28.8851 90.0918 28.5555 90.7508 27.8967V25.866C89.6126 26.0217 88.762 26.2613 88.1989 26.5849C87.7196 26.8964 87.48 27.2856 87.48 27.7529C87.48 28.5076 87.9234 28.8851 88.81 28.8851Z" fill="white"/>
<path d="M97.3967 30.7001C96.5221 30.7001 96.0847 30.2628 96.0847 29.3881V25.6683V21.7147C96.0847 20.9959 96.4623 20.6365 97.2169 20.6365C97.8999 20.6365 98.2833 20.9599 98.3671 21.6068L98.421 21.9662H98.4929C99.5711 20.9119 100.661 20.3848 101.763 20.3848C103.836 20.3848 104.873 21.7327 104.873 24.4284V29.3881C104.873 30.2628 104.435 30.7001 103.561 30.7001C102.674 30.7001 102.231 30.2628 102.231 29.3881V24.7518C102.231 23.985 102.117 23.446 101.889 23.1345C101.674 22.8109 101.314 22.6492 100.811 22.6492C100.428 22.6492 100.068 22.7451 99.7328 22.9368C99.4693 23.0924 99.1278 23.3739 98.7086 23.7814V29.3881C98.7086 30.2628 98.2712 30.7001 97.3967 30.7001Z" fill="white"/>
</svg>
