<svg width="1440" height="1981" viewBox="0 0 1440 1981" fill="none" xmlns="http://www.w3.org/2000/svg">
<path fill-rule="evenodd" clip-rule="evenodd" d="M349.686 55.3669C617.065 -7.09388 729.504 205.903 980.256 197.49C1197.98 190.184 1495.57 -53.8476 1662.8 11.3067C1825.4 74.6575 1646.7 335.946 1700.65 478.165C1780.38 688.325 2237.62 771.352 2049.62 1030.96C1862.97 1288.69 1399.96 1189.21 1074.46 1342.86C811.697 1466.89 642.624 1728.07 373.949 1821.95C44.6686 1937 -382.368 2062.78 -549.496 1910.26C-720.428 1754.27 -367.929 1397.82 -359.995 1152.17C-352.62 923.834 -663.793 789.358 -505.386 544.542C-348.542 302.142 41.2851 127.411 349.686 55.3669Z" fill="white"/>
</svg>
