<svg width="308" height="613" viewBox="0 0 308 613" fill="none" xmlns="http://www.w3.org/2000/svg">
<path fill-rule="evenodd" clip-rule="evenodd" d="M152.559 321.347C152.353 328.823 151.144 336.275 150.235 343.709C149.507 351.056 148.134 358.473 147.032 365.684C146.988 366.944 145.253 367.557 144.415 366.62C144.437 350.226 148.819 333.404 147.267 316.667C148.518 315.969 149.792 315.196 151.008 314.425C152.647 316.586 152.828 319.082 152.559 321.347ZM87.8087 224.692C85.9342 231.501 81.9622 237.37 80.2226 244.188L78.3857 244.005C77.4818 228.965 80.0227 214.188 82.9902 199.653L84.8366 199.762C85.488 208.138 89.7693 216.072 87.8087 224.692ZM290.055 169.293C289.955 169.012 289.853 168.727 289.758 168.438L288.683 168.667C290.686 164.871 288.818 163.622 286.551 160.484L286.305 161.054L285.432 159.147C285.259 158.663 285.082 158.252 284.604 158.071C284.137 155.699 282.746 153.526 280.894 152.346L280.539 152.745C279.805 152.103 278.92 151.859 278.078 151.562C279.886 148.831 281.049 145.289 282.269 142.361C283.262 139.286 284.814 136.302 285.106 133.184C284.871 130.188 282.039 132.134 280.658 133.629C276.44 137.329 272.807 143.189 270.084 150.305C265.409 149.089 262.727 150.372 261.428 156.761C260.233 161.102 259.011 165.553 258.849 170.053C258.222 169.838 257.108 169.028 256.507 169.663C246.116 181.034 233.847 189.794 221.982 199.381C213.015 192.784 208.349 179.733 203.418 169.935C194.815 153.118 186.212 128.499 164.083 128.585C161.151 128.279 158.287 127.929 155.518 127.077C154.446 126.786 153.121 126.435 152.757 125.784C152.101 123.686 151.977 121.417 150.824 119.493C147.661 114.35 140.807 113.946 135.436 115.063C126.318 116.753 126.547 115.766 125.889 125.358C125.692 127.635 123.927 127.961 122.043 128.433C119.904 129.107 117.725 129.658 115.527 130.102C115.755 130.038 115.983 129.975 116.212 129.91C80.5237 130.476 56.8283 171.878 52.1275 201.169C46.6676 231.136 53.7294 264.486 64.8938 289.655C64.4145 298.821 66.2123 308.028 67.3506 317.062C68.0651 319.322 70.5386 319.543 71.2458 316.924L72.1176 313.478L73.0508 316.908C73.6425 319.031 74.5934 319.283 75.449 319.298C76.5104 319.298 77.0922 318.775 77.1271 316.015L78.885 315.592C79.5624 316.883 80.2351 318.024 81.2994 318.818C83.4397 334.379 84.7832 350.559 89.9783 365.617C92.0499 371.205 95.2313 376.278 97.5677 381.76C86.5516 406.628 84.705 434.184 82.06 460.809C82.2727 460.826 83.366 460.922 83.5994 460.942L82.9962 462.545C82.1723 462.894 81.6881 463.628 81.4386 464.441C80.8829 464.395 78.5646 464.413 78.6938 464.944C78.9619 468.072 79.8389 470.304 81.5008 471.932C81.5235 472.434 81.5543 472.946 81.5931 473.421C78.2963 484.926 75.8804 497.191 74.4124 509.838C72.5463 511.634 72.0792 517.541 74.8625 519.116C82.5463 524.408 92.8678 526.92 102.586 525.966C113.103 524.971 125.646 520.78 120.613 508.784C120.548 508.411 120.038 508.393 119.635 508.475C118.743 507.61 117.777 506.955 116.731 506.588C114.654 501.399 112.785 495.958 111.156 490.526C110.362 488.031 109.541 485.452 109.608 482.716C110.001 475.998 110.693 473.221 115.361 467.929C118.251 469.319 123.758 459.256 125.02 457.144C127.675 450.895 131.059 445.214 133.894 439.084C134.332 438.049 135.862 438.027 136.461 438.924C136.731 439.301 136.798 439.769 136.646 440.207C134.177 447.331 130.815 454.134 127.572 460.78C128.677 464.641 129.114 471.088 131.877 473.961C133.38 483.963 123.094 488.545 129.722 499.638C127.479 499.792 127.27 500.689 127.309 503.413C127.302 505.369 127.251 507.422 127.62 509.251C128.067 511.497 130.14 512.1 133.252 512.762C135.774 513.32 138.203 513.957 140.706 514.559C143.237 515.401 145.904 515.332 146.944 512.772C159.479 517.02 195.613 516.534 207.564 510.904C210.865 509.583 213.193 508.837 210.162 505.117C208.493 494.501 181.253 502.091 177.405 490.448C176.856 488.936 176.063 488.141 174.519 487.866C174.754 486.664 174.44 485.329 173.103 484.984C172.701 484.864 172.272 484.832 171.858 484.454C170.829 482.335 169.142 481.05 167.177 479.923C167.98 478.768 167.331 478.23 166.97 476.939C166.604 474.466 167.446 472.097 167.403 469.695C167.854 468.937 168.203 467.876 168.926 467.351C169.596 466.878 169.179 466.673 168.918 466.152C169.117 465.975 169.568 465.575 169.772 465.414C170.554 464.554 169.734 463.298 168.73 463.202C168.607 462.787 168.46 462.305 168.366 461.893C171.142 453.55 174.417 442.718 175.504 431.24C176.556 412.881 175.569 397.404 181.163 378.747C188.983 349.205 204.173 321.482 204.378 290.221C204.117 285.039 205.554 279.521 204.251 274.436L205.869 273.595C206.102 273.863 206.523 273.856 206.606 273.491C207.668 271.769 206.478 269.704 206.234 267.818C206.789 267.224 206.512 266.682 205.842 266.357C198.656 240.994 186.638 237.289 189.946 205.585C195.344 217.022 207.303 228.599 220.484 226.897C233.762 228.882 264.737 196.538 270.72 186.082C271.816 186.167 271.829 185.382 271.996 184.641C277.46 185.284 282.575 180.995 282.676 175.749C287.471 178.721 292.595 174.477 290.055 169.293Z" fill="white"/>
<path fill-rule="evenodd" clip-rule="evenodd" d="M251.838 203.702L251.323 204.16C242.906 211.643 233.977 219.112 223.44 223.34C222.012 223.86 220.524 224.001 219.058 224.31C206.802 224.432 198.479 214.944 190.717 206.764C191.368 192.765 190.83 178.31 185.296 165.229L185.164 164.892C183.81 161.47 182.155 158.078 179.508 155.463C179.443 155.399 179.354 155.494 179.41 155.562C181.668 158.327 182.983 161.705 183.928 165.113L183.976 165.286C187.196 176.827 187.756 188.936 187.333 200.856L187.319 201.217C187.03 209.271 186.334 217.368 187.305 225.405C188.012 233.701 191.685 241.202 195.685 248.366C199.172 254.983 201.778 262.057 203.358 269.368C202.85 271.525 201.009 273.107 199.096 274.308C195.638 276.442 191.632 277.61 187.719 278.588C171.708 282.695 155.032 284.601 138.559 282.613C120.985 280.333 103.833 275.615 86.8136 270.811C85.0633 270.275 83.1208 269.789 81.4489 268.954C81.3369 268.831 81.2045 268.727 81.0608 268.642C80.7717 264.561 80.3888 260.517 80.1035 256.447C80.4889 248.562 82.6808 240.895 86.0392 233.774C92.1767 222.101 90.1494 215.002 86.4081 203.108C85.5485 200.081 84.9346 196.914 85.0111 193.795C85.4029 191.829 85.7817 189.862 86.1307 187.89C86.2762 187.512 86.4348 187.137 86.6121 186.765C86.6457 186.694 86.5505 186.638 86.5057 186.703C86.4274 186.815 86.3527 186.929 86.2781 187.044C86.5375 185.539 86.7782 184.032 86.989 182.522C87.017 182.322 86.7595 182.244 86.6849 182.438C79.9598 200.512 76.0558 219.885 76.2165 239.198C76.3118 244.885 76.7037 250.57 77.1217 256.244L77.0828 256.791C76.9346 258.937 76.8567 261.126 77.6087 263.171C77.7688 266.68 78.3648 270.147 78.1797 273.667C77.7457 276.88 76.7754 279.154 74.3598 281.376C71.9676 283.803 69.2297 285.812 66.1105 287.205C53.1428 249.333 45.5452 209.992 64.2979 172.544C73.0014 154.311 87.984 137.93 108.091 132.72C105.226 135.882 107.46 140.613 109.52 143.628L109.646 143.81C119.513 158.411 141.242 161.889 157.538 158.714C165.432 157.361 172.834 152.257 173.464 143.722C173.954 138.006 170.695 132.368 165.769 129.551L166.369 129.617C171.163 130.149 175.819 130.917 179.499 134.342C193.062 146.874 199.354 164.721 207.366 180.879L207.684 181.467C211.116 187.821 214.432 194.685 220.133 199.293L219.067 200.2C218.933 200.316 219.077 200.576 219.247 200.507C219.795 200.286 220.34 200.053 220.883 199.817C221.649 200.43 222.529 199.809 222.62 199.03C235.513 192.868 246.409 183.092 256.523 173.177C259.077 179.082 263.384 185.524 270.278 186.489C263.769 191.822 258.009 197.987 251.838 203.702ZM148.21 316.938C149.047 316.462 149.873 315.968 150.688 315.456C152.034 317.606 151.692 319.496 151.547 321.87C151.239 325.832 151.308 329.861 150.504 333.76C149.11 343.709 148.285 354.106 146.215 363.801C146.169 364.343 146.121 364.885 146.079 365.427C146.023 366.14 144.903 366.144 144.959 365.427C146.322 349.332 149.215 333.144 148.21 316.938ZM155.799 510.82C166.303 512.562 177.024 511.327 187.532 510.208L189.075 510.008C194.048 509.362 199.051 508.684 203.936 507.601C204.348 507.26 204.982 507.11 205.229 506.607L205.531 506.628C205.785 506.484 206.045 506.349 206.309 506.221C207.076 506.084 207.702 505.917 208.494 505.7C209.57 506.065 209.682 507.01 208.952 507.678C209.025 508.02 208.616 508.215 208.349 508.366C208.306 508.451 208.24 508.533 208.14 508.603C207.661 508.905 207.177 509.267 206.629 509.416C205.288 510.808 202.409 511.337 200.824 511.619L200.667 511.647C187.489 514.003 174.008 514.636 160.664 513.572C158.363 513.387 156.064 513.152 153.774 512.867L153.15 512.787C151.172 512.532 148.99 512.433 147.469 510.988C146.712 510.269 145.195 510.723 145.237 511.866L145.24 511.91C145.373 513.787 140.977 512.234 140.107 511.991L140.082 511.984C137.649 511.325 135.23 510.597 132.79 509.969L132.191 509.853C130.071 509.432 129.906 509.22 129.882 506.596L129.804 505.882C129.697 504.931 129.583 503.984 129.429 503.04L129.369 502.686C129.3 502.289 128.625 499.834 129.75 500.16C129.892 500.201 130.03 500.088 130.037 499.95C137.944 504.979 146.499 509.187 155.799 510.82ZM114.04 517.15L114.711 516.748C115.835 516.069 116.964 515.332 117.761 514.3C119.076 514.349 119.617 513.112 119.567 512.009C120.671 515.596 119.302 518.467 116.067 520.283C104.795 526.259 90.3741 525.379 79.1537 519.696C78.0771 519.141 77.0246 518.539 76.004 517.889L75.7743 517.743C75.3918 517.498 75.0209 517.235 74.8172 516.814C74.3262 515.376 74.333 513.959 74.2798 512.357C75.1299 513.502 76.5408 514.295 77.7132 515.084C79.9505 516.58 82.3744 517.766 84.8879 518.718C94.1953 522.172 105.25 521.961 114.04 517.15ZM79.9505 222.595C80.8494 214.801 82.3897 207.115 83.8822 199.42C84.4888 207.69 88.7863 215.743 86.8752 224.109C85.0072 230.844 81.0041 236.818 79.2937 243.611C78.9612 236.595 79.1657 229.576 79.9505 222.595ZM91.027 290.22C90.0157 290.405 88.9763 290.401 87.9536 290.328C83.809 289.827 83.1535 292.334 83.1677 295.84C83.0416 298.106 82.9026 300.372 82.7842 302.64L82.7159 304C82.6301 305.813 82.4022 307.839 82.6301 309.733C81.8792 311.454 81.4732 313.247 81.3537 315.128C81.0085 315.035 80.6391 315.079 80.3741 315.26C78.8533 312.552 78.4894 309.246 78.176 306.196C78.023 304.697 75.8174 304.628 75.7838 306.196C75.7408 308.329 75.7091 310.464 75.6718 312.596L75.614 315.888L75.6141 315.937C75.6234 316.405 75.8355 317.589 75.2587 317.544L75.2258 317.54C74.1525 317.46 74.1031 313.643 73.8709 312.692L72.9755 306.308C72.7742 304.88 70.7191 305.346 70.5778 306.592L70.5739 306.632C70.3226 309.549 70.0677 312.467 69.8518 315.387C69.7837 315.892 69.7745 316.805 69.2229 317.026C68.7357 316.589 68.6434 315.853 68.5398 315.241C67.6225 306.818 65.9 298.503 64.8379 290.099C65.5264 290.001 66.1571 289.572 66.3587 288.913C71.8846 287.785 77.6837 284.676 80.4599 279.626C81.0141 280.114 81.447 280.752 81.9844 281.253C82.8335 282.049 83.7665 282.766 84.6584 283.509C87.1585 285.624 89.6678 287.621 92.1168 289.801C91.7585 289.919 91.4319 290.148 91.027 290.22ZM151.149 117.789C151.177 117.679 151.33 117.71 151.338 117.815C151.491 119.938 152 122.179 152.776 124.261C153.054 124.306 153.321 124.463 153.515 124.766C153.776 125.174 155.026 125.459 155.678 125.651L155.771 125.679C158.478 126.514 161.303 126.851 164.11 127.149C177.314 127.879 182.119 132.014 189.568 142.462C198.41 154.232 203.371 168.201 210.036 181.192C211.676 184.351 213.447 187.435 215.393 190.417L215.579 190.7C217.317 193.344 219.241 196.022 221.896 197.807C228.322 192.422 235.195 187.615 241.552 182.148L242.146 181.633C246.915 177.513 251.47 173.147 255.805 168.572C256.316 168.032 257.275 167.89 257.984 168.207C258.262 164.089 259.425 160.05 260.498 156.072C261.625 150.947 263.581 147.483 269.485 148.752C271.861 142.773 275.042 136.938 279.86 132.572L280.169 132.294C281.195 131.363 282.541 130.029 283.981 130.149C285.289 130.257 285.961 131.44 286.013 132.643C286.073 134.071 285.451 135.524 285.004 136.862L284.967 136.976C284.392 138.732 283.772 140.474 283.117 142.203C282.487 143.866 281.811 145.512 281.104 147.144C280.383 148.509 279.853 150.769 278.54 151.594C277.862 151.997 277.164 151.455 277.092 150.763C276.99 149.856 277.512 149.059 277.896 148.269C278.251 147.543 278.598 146.813 278.936 146.079C280.293 143.124 281.511 140.108 282.558 137.032C282.869 135.996 284.141 133.304 283.7 132.373C283.258 132.377 282.348 133.31 282.026 133.588C276.965 137.776 273.676 143.564 269.914 148.845C272.275 149.519 274.838 149.835 276.799 151.419C280.833 154.936 277.594 161.9 272.186 160.604C273.696 163.808 274.994 168.985 272.319 171.88C271.515 172.633 269.953 172.392 269.708 171.193C269.447 169.919 269.761 168.827 270.048 167.593C270.569 165.079 270.884 162.504 270.529 159.944L270.418 159.878C269.501 159.322 268.925 158.698 268.953 157.549C268.833 156.718 269.72 155.599 270.61 156.279C270.899 156.498 271.252 156.515 271.556 156.737C272.072 157.227 272.713 157.613 273.444 157.607L273.515 157.605C274.456 157.597 275.15 157.031 275.437 156.152C276.224 153.74 273.498 152.93 271.726 152.466L271.268 152.325C266.429 150.847 264.675 150.823 263.459 156.504C262.142 160.743 260.982 165.106 258.755 168.98L259.032 169.641C261.271 174.969 264.081 181.102 270.1 182.736C270.313 180.956 272.24 180.892 273.634 180.936C275.434 180.839 277.241 179.927 278.512 178.616C279.623 177.498 280.182 175.941 281.41 174.944C280.854 173.681 282.11 172.288 283.422 173.015C284.306 173.503 284.84 174.199 285.907 174.341C286.853 174.468 287.725 174.138 288.443 173.532C290.318 171.949 289.426 169.623 289.885 167.55C289.281 168.594 288.277 169.395 287.202 169.949C280.025 174.05 280.097 166.009 284.063 167.33C288.372 166.35 288.299 164.795 286.689 161.142L286.66 161.056C286.398 160.289 285.813 158.934 286.357 158.108C286.387 158.067 286.441 158.054 286.48 158.091C286.973 158.575 287.167 159.387 287.583 159.957L288.078 160.549C289.585 162.362 291.16 164.516 290.182 166.937C290.287 166.914 290.4 166.959 290.436 167.086C290.899 168.768 291.819 170.42 291.628 172.219C291.23 176.162 286.952 178.327 283.409 176.684C282.727 181.753 277.724 185.402 272.709 185.176C272.55 185.871 272.035 186.482 271.239 186.545C263.859 198.356 234.848 228.743 220.622 227.473C219.261 228.09 217.53 227.78 216.089 227.594C205.04 226.155 195.807 218.082 190.656 208.513C188.762 239.856 199.462 239.475 206.621 265.441C207.338 265.89 207.756 266.87 207.2 267.699C207.507 269.27 208.136 270.88 207.894 272.492C207.774 272.952 207.534 273.371 207.315 273.792C206.866 274.651 205.681 274.547 205.127 273.879C206.067 277.28 205.666 280.849 205.425 284.316C205.278 286.352 205.289 288.36 205.287 290.397C205.006 321.418 189.838 349.388 182.041 378.818C179.835 387.067 178.141 395.474 177.475 403.995C176.767 413.061 177.26 422.176 176.409 431.231C175.423 441.717 172.619 451.91 169.312 461.878C169.51 462.685 169.921 463.604 169.667 464.3C164.943 465.096 160.383 466.542 155.795 467.885C155.616 467.937 155.504 468.048 155.447 468.181L154.398 468.529C153.718 468.755 154.01 469.835 154.696 469.607L155.842 469.226C159.763 467.93 163.729 466.692 167.807 466.111L167.932 466.06C168.748 465.734 169.707 465.495 170.137 466.392C170.355 466.847 170.182 467.305 169.871 467.665C169.608 467.969 169.273 468.156 169.043 468.501C168.785 468.954 168.567 469.432 168.312 469.892C168.314 472.169 167.564 474.423 167.855 476.694C168.074 477.637 168.839 478.541 168.354 479.55L168.575 479.691C169.861 480.517 171.091 481.422 171.936 482.698C172.121 482.977 172.261 483.553 172.472 483.75C172.692 483.955 173.103 483.98 173.373 484.076C174.743 484.492 175.605 485.728 175.487 487.163C178.696 488.085 177.591 491.34 180.902 493.606C184.302 496.066 188.906 496.336 192.921 496.975L199.764 498.065L200.162 498.113C204.493 498.647 210.141 499.652 211.013 504.706L211.083 504.787C212.129 506.035 213.136 508.405 211.844 509.76C210.793 510.691 209.359 511.128 208.087 511.671C206.323 512.943 203.781 513.536 201.846 513.895C185.116 516.99 167.882 517.349 151.039 514.948L150.757 514.907C149.58 514.731 148.365 514.492 147.29 513.989C145.787 516.515 142.893 516.198 140.457 515.481C138.544 515.008 136.632 514.542 134.719 514.076L134.54 514.029C131.586 513.272 127.396 513.042 126.68 509.442C126.311 507.589 126.335 505.527 126.354 503.643L126.35 503.025C126.347 501.439 126.472 499.288 128.27 498.953C125.772 494.331 126.317 488.647 128.643 484.065L128.767 483.84C130.479 480.704 131.548 478.086 130.98 474.381C129.84 473.308 129.308 471.768 128.886 470.253C128 467.066 127.226 463.844 126.571 460.601L127.587 458.516C130.567 452.399 133.514 446.255 135.74 439.819C135.945 439.228 134.984 438.811 134.717 439.388C131.902 445.491 128.459 451.29 125.839 457.485C124.101 460.724 122.014 463.77 119.675 466.606L119.572 466.75C118.664 467.994 117.903 468.408 116.412 468.92C116.173 469.02 115.931 469.022 115.703 468.957C114.28 470.884 112.552 472.41 111.805 474.711C110.989 477.255 110.678 480.053 110.517 482.713C110.431 486.178 111.877 489.45 112.784 492.741C114.172 497.175 115.718 501.56 117.428 505.881C118.342 506.25 119.17 506.817 119.935 507.517C120.572 507.455 121.244 507.744 121.482 508.52L121.581 508.844C122.423 511.634 123.137 514.857 122.044 517.653C119.021 524.425 109.308 526.114 102.663 526.925C92.824 527.858 82.5026 525.509 74.3115 519.908C73.1546 519.098 72.3653 518.176 72.1731 516.74L72.1529 516.561C71.8885 514.159 71.8271 511.309 73.4961 509.447C74.9228 497.265 77.2599 485.088 80.626 473.288C80.5999 472.954 80.5794 472.621 80.5626 472.286C78.6837 470.331 77.9483 467.58 77.7375 464.937C77.713 463.827 78.8375 463.596 79.7094 463.46L80.0307 463.457C82.8721 463.437 85.8044 463.576 88.3398 464.636L88.215 464.641C88.0867 464.647 87.9527 464.662 87.8554 464.729C89.1258 465.136 90.5113 465.316 91.7257 465.851C92.6251 465.895 93.4094 466.322 94.3204 466.399L94.4653 466.408C94.6273 466.422 94.7504 466.374 94.8391 466.294C97.2863 466.73 99.7194 467.317 102.163 467.675C102.867 467.779 103.172 466.702 102.46 466.598C99.1917 466.118 95.9379 465.237 92.6465 464.829C91.9188 464.547 91.2155 464.185 90.4859 463.894C90.4433 463.797 90.3635 463.711 90.2338 463.65C89.4335 463.275 88.6022 462.966 87.752 462.708C85.5724 462.033 83.2828 461.749 81.013 461.615L81.1739 459.993C83.7855 433.49 85.691 406.276 96.5261 381.595C94.224 376.281 91.0931 371.219 89.0789 365.753C88.243 363.568 87.7354 361.34 87.073 359.111C86.6423 358.043 86.2865 356.961 86.1139 355.816C83.4612 343.689 81.9615 331.353 80.3963 319.052C79.3428 318.182 78.6468 316.928 78.036 315.774L78.0333 315.949C77.9972 317.849 77.7288 320.036 75.3359 319.98C73.4046 319.933 72.5592 318.494 72.1264 316.901C71.2852 320.231 67.5475 320.413 66.452 317.134C65.9631 315.812 65.9836 314.303 65.838 312.915C65.0571 305.299 63.4274 297.688 63.8956 290.019C63.4029 289.852 62.9738 289.475 62.7646 288.848C53.4345 260.604 45.1312 230.377 51.188 200.574C57.2442 171.374 73.6459 138.686 104.641 130.406C110.916 128.822 117.291 128.284 123.723 127.875C124.651 126.08 125.251 124.039 125.372 122.008C125.41 121.421 125.382 120.84 125.38 120.253C125.378 119.711 125.609 119.065 125.501 118.558C125.475 118.435 125.643 118.394 125.688 118.508C125.824 118.863 126.102 119.042 126.29 119.342C126.759 120.19 126.883 121.196 127.007 122.144C127.472 125.842 126.414 129.647 124.176 132.616L124.098 132.718C123.404 133.646 122.083 135.326 120.717 134.521C119.527 133.818 120.289 132.387 120.999 131.62L121.053 131.563C122.014 130.565 122.82 129.497 123.475 128.333C120.564 129.108 117.677 129.962 114.775 130.77L114.638 130.845C112.366 132.082 108.989 133.406 109.287 136.472C115.329 154.693 142.061 159.375 158.581 155.025L158.845 154.954C162.006 154.083 165.171 152.683 167.322 150.131L167.411 150.024C171.23 145.506 170.937 138.041 166.155 134.331C163.315 132.006 159.391 130.771 155.848 129.967C156.878 131.677 159.158 132.884 159.572 134.91C159.679 135.605 159.294 136.266 158.527 136.281C156.579 136.318 155.142 134.24 154.12 132.843C151.986 129.92 150.775 126.387 150.517 122.788C150.388 121.037 150.711 119.46 151.149 117.789ZM280.048 150.663C279.945 150.592 280.002 150.382 280.141 150.439C285.437 152.633 287.599 160.488 283.612 164.813C282.289 166.208 280.305 167.015 278.499 166.283C276.279 165.908 274.982 163.668 274.698 161.604C274.679 161.508 274.787 161.464 274.848 161.524L274.859 161.537C275.697 162.57 277.02 163.262 278.225 163.791C278.563 163.608 278.932 163.463 279.303 163.377C279.831 163.258 280.373 163.671 280.322 164.21C282.815 163.754 283.814 160.79 283.89 158.541L283.892 158.473C283.993 155.36 282.584 152.482 280.048 150.663Z" fill="#222222"/>
<path fill-rule="evenodd" clip-rule="evenodd" d="M127.124 44.5803L128.736 46.4936C127.844 47.1213 127.001 47.7521 126.209 48.3859L126.208 48.384C129.879 45.9934 133.944 44.5803 138.335 44.5803C146.793 44.5803 163.974 51.8329 167.858 57.0642C169.785 59.6604 173.367 67.6302 175.225 76.2949C176.718 83.2568 178.938 102.925 176.718 110.316C173.876 119.774 164.527 128.517 154.887 128.517C145.248 128.517 130.282 121.57 119.63 106.346C119.143 105.65 113.55 104.843 109.56 102.23L110.608 113.75L111.404 120.451L111.228 120.928C108.371 128.643 106.106 132.668 104.435 133.003C102.729 133.344 99.2561 130.554 94.0152 124.631L93.3455 121.825C91.6445 114.667 90.794 110.826 90.794 110.299L90.7952 110.203C90.8203 108.992 91.2383 102.136 91.2469 100.291L91.2471 72.637C96.8835 53.9325 102.262 44.5803 107.383 44.5803H127.124Z" fill="white"/>
<path fill-rule="evenodd" clip-rule="evenodd" d="M113.769 38.2103C115.426 37.5696 117.346 37.6906 118.919 38.6555C122.007 38.5232 125.079 40.3263 126.689 42.9582C126.723 42.9955 126.758 43.0327 126.79 43.07L127.131 43.467C127.454 43.8461 127.795 44.264 128.065 44.6955C126.743 44.7257 125.641 45.2638 124.872 46.3507C124.323 47.1262 125.58 47.8631 126.141 47.1296L126.161 47.1028C126.622 46.4503 127.32 46.1976 128.096 46.1843C128.318 46.1806 128.488 46.0955 128.607 45.9699C128.655 46.143 128.697 46.3179 128.736 46.4935C132.644 44.9764 136.856 44.5746 141.052 44.9345C140.868 45.2318 140.714 45.5503 140.596 45.885C140.462 46.2644 140.748 46.7001 141.117 46.8014C141.517 46.911 141.878 46.6773 142.022 46.3163L142.036 46.281C142.197 45.825 142.46 45.4337 142.813 45.1303C144.789 45.3975 146.75 45.8226 148.663 46.3706C150.962 47.0298 153.24 47.8343 155.468 48.7554C155.091 48.9031 154.765 49.1527 154.536 49.5693C154.081 50.4011 155.333 51.146 155.809 50.3509L155.825 50.3215C155.872 50.2362 155.913 50.1849 155.943 50.1558L155.954 50.1458L156.02 50.1157L156.142 50.0806L156.189 50.0691C156.231 50.0598 156.248 50.0604 156.357 50.0544C156.502 50.0462 156.648 50.0469 156.793 50.0467C157.135 50.0466 157.353 49.8564 157.452 49.6131C158.551 50.1084 159.636 50.6299 160.702 51.1763L160.956 51.3072C164.246 53.0234 167.364 55.2772 169.172 58.5933C169.292 58.815 169.329 59.0571 169.299 59.2881C169.685 59.7501 170.058 60.2269 170.417 60.7112C171.51 62.1939 172.311 63.8796 173.068 65.5504C174.593 68.9106 175.619 72.3621 176.42 75.9608C177.194 79.429 177.819 82.9345 178.4 86.4401C179.043 90.3349 179.579 94.2632 179.691 98.2139C179.889 105.257 178.509 112.34 174.548 118.269C171.014 123.559 165.692 127.759 159.381 129.104C152.962 130.471 146.17 129.138 141.111 124.868C140.296 124.181 140.408 122.794 141.111 122.089C141.908 121.296 143.084 121.406 143.895 122.089C148.659 126.111 155.593 126.731 161.333 124.682C166.64 122.786 170.797 118.413 173.348 113.501C176.461 107.51 176.985 100.63 176.507 94.0024C176.246 90.3628 175.703 86.753 175.143 83.1487L174.805 80.9792C174.437 78.6293 174.049 76.2826 173.544 73.9565L173.426 73.4146C172.809 70.6097 172.085 67.7328 170.967 65.0959C170.381 63.7119 169.676 62.3783 168.954 61.0614C168.814 60.8062 168.67 60.5473 168.523 60.2865C168.325 60.3554 168.099 60.3666 167.862 60.2921C165.823 59.6588 163.727 59.2341 161.594 59.0925C160.623 59.0277 159.65 59.0177 158.678 59.0555C157.014 58.9588 155.303 59.1048 153.718 59.6141C153.563 59.4813 153.406 59.3513 153.249 59.2212C153.207 59.2179 153.164 59.2134 153.122 59.205C152.717 59.1257 152.433 58.8388 152.262 58.4766C152.253 58.4574 152.245 58.4382 152.237 58.419C152.034 58.2642 151.83 58.1119 151.623 57.9615C151.12 58.0917 150.68 57.6739 150.561 57.2161C150.449 57.1407 150.335 57.0676 150.222 56.9937C150.133 57.0153 150.045 57.0332 149.959 57.0395C149.589 57.0662 149.231 57.0095 148.903 56.8331C148.488 56.6098 148.222 56.2496 148.044 55.8403C147.416 55.8789 146.78 55.6753 146.218 55.3073C145.762 55.0087 145.413 54.5965 145.066 54.185C140.834 52.3009 136.234 51.1885 131.623 50.9036C131.169 50.9907 130.718 51.0945 130.272 51.2152C130.167 51.2439 130.017 51.3001 129.845 51.3675C130.873 51.2435 131.914 51.2312 132.97 51.383C137.981 52.1063 141.884 55.8513 145.243 59.3865C146.042 59.2253 146.849 60.2582 146.11 60.9422L140.345 66.2751C140.486 66.8715 139.801 67.4594 139.201 67.3162C138.194 67.0748 137.186 66.8401 136.177 66.6093C135.124 67.1176 133.801 67.0306 132.847 66.2938C132.802 66.2595 132.706 66.2047 132.622 66.1503C132.544 66.215 132.438 66.2798 132.396 66.3074C132.057 66.5316 131.643 66.5976 131.247 66.5346C130.839 66.47 130.471 66.2634 130.153 66.0062C129.951 65.8423 129.48 65.1586 129.218 65.1083L129.193 65.1054C129.368 65.1104 128.806 65.6318 128.655 65.7396C128.302 65.9905 127.913 66.1224 127.475 66.0743C126.711 65.9904 126.054 65.2955 125.68 64.6538L125.652 64.6045L125.64 64.574L125.63 64.607C125.629 64.6129 125.627 64.6191 125.624 64.6261C125.568 64.7772 125.392 64.9489 125.273 65.0545C124.932 65.355 124.511 65.487 124.061 65.4086C123.68 65.3424 123.36 65.1127 123.102 64.8347L123.062 64.7904C122.986 64.7046 122.484 64.0315 122.563 63.8702L122.573 63.8567L122.548 63.8514C122.242 63.9263 121.986 63.8513 121.798 63.6942C120.751 63.4651 119.717 63.1982 118.716 62.8588C118.638 63.0786 118.561 63.2984 118.486 63.5201C119.033 63.8572 119.539 64.3378 120.003 64.6805C120.884 65.3287 121.765 65.9769 122.644 66.627L126.126 69.1911L126.524 69.0844C127.033 68.948 127.47 69.2437 127.656 69.6957L127.672 69.7348C127.746 69.9328 127.835 70.1159 127.94 70.2912C128.81 70.2566 129.547 70.79 129.786 71.5552C130.001 71.5504 130.218 71.5585 130.44 71.583C131.048 71.6496 131.458 72.1004 131.348 72.7194L131.339 72.7618L131.325 72.8307C131.677 72.9801 131.933 73.2687 131.99 73.7049C132.084 73.8466 132.16 74.0009 132.209 74.1726C132.463 75.0637 131.968 76.1653 131.705 77.0189L131.685 77.0858C131.515 77.6468 131.34 78.2052 131.163 78.7633L130.722 80.1489C129.499 84.0105 128.306 88.0821 129.296 92.1305C129.507 92.9873 128.41 93.3747 127.934 92.7042C126.78 91.0807 125.534 89.5509 124.225 88.0824L124.162 88.0723C123.245 87.8885 122.89 87.2423 122.469 86.5837C122.221 86.6565 121.955 86.6736 121.697 86.6241C121.324 86.5524 120.99 86.3398 120.727 86.0714C120.503 85.8438 120.299 85.2601 120.035 85.1153C119.704 84.9345 119.04 85.193 118.646 85.1349C118.325 85.0878 118.026 84.9779 117.735 84.8398C117.201 85.5665 116.847 86.4207 116.76 87.3416C116.727 87.6918 116.622 87.9879 116.471 88.2338C117.027 88.2133 117.585 88.2524 118.136 88.3549C120.173 88.733 121.634 89.9884 122.455 91.8585C122.491 91.9405 122.384 92.0075 122.336 91.9293C121.117 90.0573 118.466 89.9623 116.54 90.6217C114.495 91.3221 113.347 93.1195 112.939 95.1703C112.491 97.4185 113.065 99.8419 114.292 101.757C114.861 102.647 115.637 103.459 116.669 103.787C117.895 104.176 119.027 103.48 120.283 103.839C121.138 104.083 121.515 104.908 121.36 105.733C121.298 106.058 121.184 106.341 121.031 106.587C121.483 107.481 121.901 108.401 122.433 109.246C123.254 110.552 124.247 111.632 125.329 112.722C126.446 113.847 127.585 114.95 128.781 115.993C129.927 116.993 131.24 117.705 132.442 118.621C133.286 119.264 133.703 120.165 133.287 121.197C132.944 122.05 131.787 122.777 130.85 122.391C129.057 121.654 127.488 120.398 126.059 119.105C124.734 117.906 123.58 116.472 122.709 114.914C121.887 113.446 121.281 111.779 120.77 110.173L120.707 109.973C120.466 109.209 120.212 108.35 120.048 107.484C119.065 108.021 117.73 108.099 116.678 107.954C114.978 107.721 113.428 106.866 112.256 105.62C111.709 105.04 111.227 104.379 110.81 103.662C110.848 104.098 110.87 104.52 110.895 104.905C111.869 105.97 112.26 107.507 111.914 108.909C112.729 109.747 112.957 111.004 112.532 112.074C113.424 112.957 113.39 114.363 113.005 115.639C114.059 116.816 114.159 118.649 113.336 119.977L113.311 120.072C114.142 121.461 113.955 123.256 112.913 124.482C113.625 125.86 113.514 127.713 111.736 128.247C111.088 128.442 110.46 128.276 109.99 127.913C110.419 130.044 110.611 132.207 110.039 134.348C109.811 135.197 108.979 135.817 108.104 135.817C107.372 135.817 106.841 135.45 106.473 134.91C106.516 135.985 106.451 137.065 106.221 138.155C106.083 138.813 105.471 139.326 104.822 139.485C105.056 139.749 105.15 140.13 104.925 140.527C103.973 142.209 101.673 141.511 101.518 139.9C100.868 139.416 100.567 138.621 100.442 137.763C100.259 136.511 100.193 135.279 99.987 134.043L99.9081 134.117L99.8674 134.152L99.8543 134.241C99.736 134.852 99.3908 135.28 98.9428 135.535C99.0402 136.601 98.8599 137.687 98.1826 138.496C97.7314 139.035 96.9628 139.248 96.3039 139.131C96.2625 139.133 96.2201 139.133 96.1761 139.127C94.6838 138.929 93.8204 137.516 94.2132 136.219C93.6124 135.484 93.3594 134.552 93.5372 133.63C92.3745 132.861 92.3982 131.173 92.8009 129.818C91.582 128.857 91.1235 127.062 91.7359 125.636C90.6374 124.274 90.4846 122.376 91.231 120.826C90.0224 119.834 90.0293 117.921 91.228 116.907C90.5897 115.642 90.2047 114.127 90.8427 112.969C90.3926 112.473 90.1456 111.767 90.1976 111.084C90.2739 110.081 90.9386 109.388 91.7634 108.926L91.8205 108.613C92.0142 108.637 92.2205 108.583 92.4025 108.408C92.5825 108.236 92.7678 108.096 92.9595 107.982C93.1765 107.979 93.3633 107.882 93.4946 107.734C93.854 107.612 94.2405 107.558 94.6691 107.553C95.5948 107.543 95.6275 106.161 94.7659 106.072C94.6299 105.935 94.4426 105.849 94.2394 105.849L94.0802 105.849C93.7082 105.853 93.3326 105.876 92.9875 106.023C92.7632 106.119 92.5902 106.264 92.4635 106.44C92.4398 106.707 92.2943 106.974 91.9791 107.194C91.615 107.448 91.1172 107.477 90.7276 107.247C90.1821 106.926 90.1765 106.423 90.2394 105.877C90.3771 104.682 89.689 103.558 89.8528 102.336C89.9254 101.795 90.1056 101.329 90.3995 100.952C89.7798 100.026 89.6705 98.8308 90.1476 97.8144C89.1536 96.7469 88.9818 95.1014 89.6156 93.8167C89.6248 93.7856 89.6319 93.7538 89.6418 93.723C89.7134 93.5047 89.8121 93.3078 89.9209 93.1195C89.3645 92.1573 89.3686 90.9766 89.9342 90.0184C89.0775 89.0215 89.0502 87.4351 89.8121 86.3611C89.8166 86.272 89.8259 86.183 89.8336 86.094C89.4839 85.1878 89.5679 84.1576 90.0114 83.3149C89.8532 82.9507 89.7311 82.5586 89.6531 82.141C89.4533 81.0644 89.5561 80.0176 89.8547 78.9671C89.903 78.8013 89.9571 78.6355 90.0149 78.4697C90.0247 77.7502 90.0521 77.0338 90.0883 76.3188C89.9464 75.7134 89.9235 75.0482 89.9204 74.4307L89.9195 74.0302C89.9125 73.0111 89.8414 71.519 90.4869 70.6527C90.0724 69.7169 90.2428 68.5379 90.9345 67.7962C90.449 66.9626 90.3471 65.9391 90.8351 65.0143C90.9134 64.8655 91.0043 64.7269 91.1039 64.5958C91.0636 63.7488 91.2422 62.8754 91.6943 62.0337C91.988 61.4857 92.4267 61.0113 92.9483 60.6317C92.9395 60.5193 92.9341 60.4072 92.936 60.2967C92.9451 59.8039 93.0546 59.309 93.239 58.8472C92.9082 58.2836 92.7548 57.6482 92.9483 56.9635C93.1647 56.1887 93.734 55.5218 94.4448 55.1456C94.5021 54.415 94.6165 53.6888 94.7799 52.9722C94.3431 52.0012 94.6909 50.7197 95.6782 50.1477C95.5495 49.3717 95.6655 48.567 96.2313 47.9609C96.4457 47.7313 96.6984 47.5571 96.9702 47.4416C96.8392 46.6614 96.987 45.8496 97.5276 45.2143C97.9691 44.6955 98.6233 44.3804 99.2891 44.334C99.5455 42.9768 100.844 41.9621 102.215 42.0429C102.386 41.4454 102.795 40.9244 103.43 40.6603C103.593 40.5926 103.757 40.5481 103.92 40.5234C105.035 39.4013 106.694 38.6408 108.13 38.2513C109.571 37.8622 111.031 37.8245 112.268 38.2769L112.358 38.3109L112.459 38.2979C112.896 38.2494 113.332 38.2215 113.769 38.2103ZM102.821 130.176C102.436 130.057 102.007 130.318 101.903 130.697C101.793 131.097 102.038 131.493 102.424 131.613C102.906 131.763 103.411 131.8 103.913 131.801C104.316 131.801 104.659 131.458 104.659 131.056C104.659 130.651 104.317 130.311 103.913 130.311C103.505 130.31 103.204 130.295 102.821 130.176ZM99.3984 122.264C98.8232 122.265 98.3298 122.402 97.9032 122.804C97.6188 123.072 97.6118 123.591 97.9032 123.858C98.1976 124.127 98.6247 124.143 98.9269 123.886L98.9851 123.834C98.9921 123.828 98.9975 123.823 99.0019 123.819C99.0262 123.803 99.0506 123.787 99.0764 123.774L99.0277 123.805C98.9906 123.832 99.0766 123.788 99.1248 123.768L99.14 123.762L99.1449 123.761L99.1835 123.758C99.2549 123.754 99.3268 123.754 99.3984 123.754C99.7888 123.754 100.163 123.412 100.145 123.009C100.127 122.606 99.8168 122.264 99.3984 122.264ZM110.254 117.537C111.062 117.042 110.341 115.777 109.53 116.233L109.501 116.25C109.086 116.505 108.575 116.47 108.104 116.47C107.144 116.471 107.142 117.961 108.104 117.96L108.263 117.96C108.953 117.955 109.651 117.907 110.254 117.537ZM103.896 112.098C103.286 111.983 102.602 111.881 101.96 111.951L101.853 111.964H101.655C101.484 111.964 101.317 112.033 101.184 112.142C100.973 112.229 100.773 112.346 100.59 112.504C99.8631 113.134 100.923 114.184 101.646 113.558C101.686 113.523 101.733 113.495 101.784 113.471L101.824 113.454H102.623C102.695 113.454 102.766 113.439 102.835 113.417C103.094 113.453 103.335 113.504 103.499 113.535C104.438 113.711 104.84 112.275 103.896 112.098ZM103.214 97.7967C102.044 97.255 100.749 97.2589 99.6666 98.0111C98.8928 98.5489 99.6116 99.8173 100.392 99.3164L100.42 99.2978C100.517 99.2303 100.617 99.1739 100.717 99.1227C101.267 99.2812 101.82 99.2887 102.351 99.0938L102.42 99.0672L102.461 99.0832C103.327 99.484 104.086 98.2001 103.214 97.7967ZM115.955 95.4619C114.773 95.3296 114.763 93.4659 115.955 93.5992C118.47 93.8809 120.753 94.9971 122.425 96.9142C123.202 97.8058 121.922 99.1101 121.129 98.2583L121.105 98.2313C119.776 96.7069 117.982 95.6888 115.955 95.4619ZM102.714 85.893C102.451 85.8643 102.189 85.85 101.931 85.8624C101.311 85.8922 100.556 86.305 100.828 87.0508C101.046 87.6484 101.761 87.672 102.114 87.3533C102.261 87.3569 102.408 87.3665 102.554 87.3814C102.944 87.4215 103.33 87.4956 103.714 87.5712C104.653 87.7555 105.054 86.3195 104.111 86.1342L103.694 86.0518C103.553 86.0244 103.411 85.9975 103.269 85.9729C103.184 85.9306 103.092 85.9021 102.995 85.8948L102.945 85.893H102.714ZM95.2976 74.3324L95.2099 74.3206C93.9494 74.1596 91.926 74.3077 91.7731 75.9093C91.6886 76.7963 92.9724 76.852 93.2258 76.0936C94.1565 75.9261 95.0949 75.8941 96.0193 75.9958C96.372 75.6381 96.3748 74.9506 95.7878 74.7791C95.7049 74.5567 95.5319 74.3661 95.2976 74.3324ZM124.109 71.6273C123.818 71.3604 123.34 71.325 123.054 71.6273C122.889 71.8013 122.751 71.9946 122.642 72.2073L122.569 72.3509C122.557 72.3748 122.544 72.3985 122.531 72.4219C122.506 72.4653 122.479 72.5066 122.452 72.5487L122.434 72.5663C122.427 72.5736 122.419 72.5823 122.409 72.5929C122.14 72.8762 122.106 73.3692 122.409 73.6466C122.7 73.9135 123.178 73.9489 123.464 73.6466C123.629 73.4726 123.767 73.2795 123.877 73.0666L123.949 72.9231C123.961 72.8992 123.974 72.8756 123.987 72.8522C124.012 72.8086 124.039 72.7672 124.066 72.7251L124.095 72.6955C124.1 72.6911 124.104 72.6863 124.109 72.681C124.378 72.3979 124.412 71.9046 124.109 71.6273ZM108.803 69.687C107.752 68.943 106.501 68.9084 105.534 69.8034C104.837 70.4494 105.862 71.4844 106.565 70.8791L106.59 70.8571C106.616 70.8332 106.641 70.8124 106.667 70.7924C106.793 70.8997 106.954 70.9677 107.137 70.9679C107.185 70.968 107.233 70.9679 107.28 70.9689L107.352 70.9714L107.39 70.9746L107.395 70.9755L107.429 70.9898C107.49 71.0174 107.575 71.0601 107.459 70.9875C107.485 71.0011 107.509 71.0171 107.534 71.0327L107.577 71.0716C107.858 71.3373 108.345 71.3723 108.624 71.0785C109.119 70.9116 109.381 70.0954 108.803 69.687ZM119.085 67.246L119.105 67.24C120.027 66.9772 119.635 65.539 118.708 65.8029C117.724 66.0833 117.254 66.9969 117.058 67.9327C116.975 68.3263 117.173 68.7381 117.579 68.8493C117.95 68.9508 118.414 68.7245 118.497 68.3289C118.556 68.0507 118.623 67.8146 118.73 67.5956L118.794 67.4706C118.824 67.4136 118.835 67.4041 118.936 67.3154C118.954 67.3005 119.031 67.2644 119.085 67.246ZM103.466 59.7411L103.322 59.7083C102.423 59.5118 101.231 59.4093 100.689 60.2982C100.194 61.1081 101.442 61.8454 101.955 61.0798C101.963 61.0796 101.972 61.0796 101.983 61.0805L101.999 61.0824L102.23 61.0638C102.517 61.0617 102.791 61.1124 103.069 61.1782C104.003 61.3989 104.402 59.9624 103.466 59.7411ZM135.717 54.0127C136.397 53.3338 135.342 52.2797 134.662 52.9592C134.124 53.4962 133.605 54.0369 133.255 54.7192C133.072 55.0772 133.161 55.5276 133.523 55.7386C133.856 55.9333 134.36 55.8308 134.544 55.4713C134.847 54.88 135.23 54.4996 135.717 54.0127ZM127.135 52.2305C126.463 52.6276 126.028 53.2818 125.764 54.039C125.631 54.419 125.915 54.8539 126.285 54.9554C126.683 55.0646 127.047 54.8318 127.19 54.4703L127.203 54.435C127.274 54.2325 127.387 53.9933 127.527 53.8128C127.646 53.6588 127.832 53.5046 127.972 53.4534C128.308 53.33 128.547 53.0257 128.516 52.6703C127.962 52.8612 127.449 52.6315 127.135 52.2305ZM107.02 48.9895C106.342 48.3614 105.432 48.2781 104.611 48.6583C104.245 48.8274 104.153 49.354 104.343 49.6777C104.562 50.0523 104.997 50.1149 105.364 49.945C105.27 49.9886 105.44 49.9311 105.513 49.91C105.523 49.9144 105.646 49.9088 105.689 49.9094L105.74 49.9126C105.74 49.913 105.728 49.9127 105.702 49.9119C105.738 49.92 105.773 49.9296 105.808 49.9407L105.853 49.9561C105.83 49.9514 105.931 50.017 105.959 50.0388L105.964 50.043C106.668 50.6948 107.726 49.6435 107.02 48.9895Z" fill="black"/>
<path fill-rule="evenodd" clip-rule="evenodd" d="M155.408 113.05C154.154 112.539 153.034 111.687 152.216 110.598C151.932 110.22 151.858 109.82 151.918 109.455C151.985 109.044 152.228 108.671 152.56 108.422C152.894 108.171 153.31 108.047 153.713 108.11C154.063 108.165 154.412 108.357 154.688 108.753L154.745 108.833C155.232 109.49 155.866 110.029 156.588 110.376C157.284 110.711 158.063 110.867 158.869 110.776C160.403 110.603 161.461 109.775 162.585 108.65C162.724 108.508 162.864 108.362 163.004 108.213C163.092 108.078 163.215 107.991 163.352 107.946C163.503 107.895 163.674 107.898 163.831 107.953C163.982 108.005 164.117 108.105 164.208 108.238C164.294 108.364 164.343 108.52 164.327 108.7C164.224 109.866 163.614 110.906 162.746 111.723C161.783 112.631 160.506 113.258 159.304 113.478C157.98 113.721 156.63 113.547 155.408 113.05ZM159.929 95.0639C161.338 95.9189 163.485 97.9125 161.969 100.032C160.185 101.901 157.616 99.7581 156.35 98.789C155.176 98.038 153.857 99.9696 154.946 100.847C164.094 107.607 167.806 95.2875 160.642 94.0587C159.853 93.9233 159.56 94.7994 159.929 95.0639ZM143.536 87.1996C143.692 85.2706 146.635 84.8326 146.928 86.7414C147.19 88.4513 146.881 90.0221 146.11 91.5616C145.372 93.0323 143.519 92.3462 143.379 91.0069C143.191 89.2117 143.439 88.3996 143.536 87.1996ZM165.94 86.3456C166.35 85.8092 166.942 85.443 167.652 85.6499C169.87 86.2968 169.216 89.4397 168.438 90.9695C168.014 91.8002 166.646 92.0109 166.028 91.2794C165.021 90.0866 164.538 87.7044 165.819 86.5295C165.854 86.4687 165.892 86.4075 165.94 86.3456ZM146.078 78.7588L146.429 78.6976C147.512 78.5105 148.86 78.3308 149.626 79.2005C150.033 79.6617 150.173 80.5189 149.626 80.9603C148.665 81.737 147.602 81.436 146.45 81.5018C145.501 81.5562 144.588 81.713 143.674 81.974C141.667 82.5464 140.033 83.5913 138.319 84.7387C138.094 84.8892 137.865 84.6022 137.972 84.3923C138.961 82.4583 140.878 80.8696 142.798 79.9012C143.823 79.3843 144.945 78.9555 146.078 78.7588ZM163.918 77.8925L164.186 77.9473C167.104 78.5561 170.895 79.7723 172.277 82.6332C172.33 83.0378 172.274 83.1245 172.229 83.1811L172.214 83.2C172.176 83.2483 172.147 83.315 171.971 83.3701C171.922 83.3585 171.873 83.3462 171.823 83.3332C171.19 83.1675 170.689 82.9392 170.204 82.7024L169.678 82.4437C169.067 82.145 168.452 81.8572 167.799 81.6447C166.407 81.1913 164.974 80.872 163.52 80.7014C163.205 80.6645 162.901 80.5583 162.662 80.3763C162.434 80.2035 162.261 79.9643 162.182 79.6464C162.079 79.2349 162.109 78.9234 162.33 78.5522C162.496 78.2734 162.734 78.0802 163.007 77.9692C163.286 77.8561 163.603 77.8295 163.918 77.8925Z" fill="black"/>
<path fill-rule="evenodd" clip-rule="evenodd" d="M179.76 90.205C177.981 102.217 165.562 103.546 163.355 91.6204C163.71 91.4657 163.964 91.1609 163.911 90.5693C163.899 87.9706 164.707 85.2239 167.055 83.7787C169.482 82.2874 172.322 82.1395 175.131 82.1772C180.49 82.0497 180.378 86.5214 179.76 90.205ZM161.411 84.9808C159.729 84.91 157.601 84.9693 156.094 85.9922C155.68 84.8787 154.604 83.6898 153.516 83.0541C157.558 83.1722 161.719 82.7751 165.792 82.4668C164.817 83.1301 163.91 84.1266 163.32 85.2787C162.774 84.9875 161.99 85.0147 161.411 84.9808ZM153.997 91.4785C149.333 107.504 137.691 100.519 136.422 98.4653C134.132 95.0667 133.702 86.8051 135.696 84.5962C138.551 82.5987 142.592 83.1128 145.964 83.0638C152.159 83.1472 156.559 84.9972 153.997 91.4785ZM185.267 84.1078C184 83.9424 182.646 83.909 181.467 84.466C181.105 82.9269 179.966 81.6401 178.68 81.0739C178.524 80.8791 178.548 80.7744 178.016 80.8036C174.752 79.8242 171.098 80.3424 167.961 81.3468C163.007 81.7633 157.809 82.0917 152.813 82.6655C148.132 80.5674 134.008 80.2599 133.13 85.4312C132.026 85.2664 130.146 84.3989 129.218 85.5756C122.413 84.4239 115.381 86.0245 108.546 86.7373C106.825 87.0536 105.939 90.4619 107.892 90.4153C108.99 90.1178 107.858 88.293 109.337 88.1557C115.931 87.4367 122.382 86.4167 129.044 86.2973C128.812 87.4457 133.45 87.5204 133.519 86.8498C133.528 86.8548 133.539 86.8582 133.549 86.8627C132.403 91.1263 133.437 97.2622 135.509 99.9061C138.411 103.368 145.696 104.361 148.927 102.134C153.094 100.078 157.43 89.7585 156.212 86.3301C158.422 85.6309 160.607 85.8408 162.9 86.1969C162.375 87.6776 161.469 91.3224 162.773 91.6385C162.534 98.8749 169.131 103.39 175.213 100.422C180.477 97.955 182.318 90.1471 181.674 85.4079C182.329 86.6719 187.832 85.2958 185.267 84.1078Z" fill="black"/>
</svg>
