<svg width="320" height="362" viewBox="0 0 320 362" fill="none" xmlns="http://www.w3.org/2000/svg">
<path d="M148.154 72.9358C134.097 73.405 121.069 77.9967 110.035 85.5713C98.7802 79.1139 85.8634 76.0751 72.4924 77.6392L58.2573 79.3038C52.7848 79.9406 47.556 81.3148 42.6375 83.3258C44.9527 81.0467 47.4563 78.9687 50.1261 77.0918C71.4843 62.1101 101.273 60.9817 125.943 64.4674C133.31 65.5064 140.688 67.6403 146.914 71.9862C147.224 72.1984 147.645 72.5224 148.154 72.9358Z" fill="#357C3D"/>
<path d="M277.998 84.6993C273.922 83.0124 269.613 81.7834 265.104 81.0349L250.968 78.7C236.124 76.2421 221.59 79.5602 209.105 87.079C198.991 79.5937 187.049 74.6892 174.099 73.3039C173.645 73.2592 173.191 73.2145 172.736 73.1698C182.762 66.1761 195.933 64.5115 208.773 64.3775C219.108 64.2657 230.053 64.5897 240.611 66.489C252.409 68.6116 263.741 72.7118 273.235 80.3869C274.908 81.7388 276.492 83.1799 277.998 84.6993Z" fill="#357C3D"/>
<path d="M277.998 84.6995C273.922 83.0125 269.612 81.7836 265.104 81.0351L250.968 78.7001C236.124 76.2423 221.59 79.5604 209.105 87.0791C198.991 79.5939 187.049 74.6894 174.099 73.304C173.645 73.2594 173.19 73.2147 172.736 73.17C170.698 72.9912 168.626 72.9019 166.544 72.9019H150.514C150.226 72.9019 149.938 72.9019 149.65 72.913C149.151 72.913 148.653 72.9242 148.154 72.9354C134.097 73.4046 121.069 77.9963 110.035 85.5709C98.7803 79.1135 85.8635 76.0747 72.4924 77.6388L58.2573 79.3034C52.7849 79.9402 47.5561 81.3144 42.6375 83.3253C15.5521 94.3745 -2.08394 124.695 0.198107 158.189C0.397509 161.183 0.752002 164.2 1.28374 167.227L22.5422 289.393C29.3773 328.685 61.8687 356.056 96.8195 351.979C103.156 351.241 109.171 349.498 114.766 346.918C127.095 356.414 142.228 362 158.523 362C166.389 362 173.988 360.693 181.122 358.28C188.256 355.867 194.947 352.347 200.996 347.901C205.095 349.588 209.415 350.839 213.935 351.588C248.653 357.308 282.385 331.5 291.037 292.577L317.934 171.551C318.61 168.545 319.097 165.551 319.441 162.568C323.396 128.181 306.037 96.162 277.998 84.6995Z" fill="#4EAF5D"/>
<path d="M199.246 10.1599C190.406 20.1923 172.903 44.1563 174.099 73.3041C171.618 73.0359 169.092 72.9019 166.544 72.9019H150.514C150.226 72.9019 149.938 72.9019 149.65 72.913C153.007 55.7752 158.457 39.1401 167.884 24.3371C172.105 17.7121 177.057 11.5228 182.817 6.20496C184.845 4.32806 186.994 2.57406 189.243 0.965287C190.782 -0.12957 192.787 -0.308323 194.493 0.507234L197.562 1.98194C199.479 2.89804 200.542 4.79729 200.542 6.73004C200.542 7.93662 200.132 9.15437 199.246 10.1599Z" fill="#357C3D"/>
<path d="M252.142 97.8602L239.746 95.8157C226.73 93.6707 213.99 96.5754 203.045 103.156C192.477 95.3465 179.649 90.7324 165.735 90.7324H151.677C138.561 90.7324 126.397 94.8214 116.194 101.837C106.324 96.1732 95.0025 93.5143 83.271 94.8884L70.7973 96.3519C39.5355 100.016 17.5348 130.818 19.8944 165.507C20.0716 168.132 20.3818 170.78 20.8471 173.428L39.4801 280.523C45.4732 314.966 73.9545 338.963 104.596 335.388C110.146 334.74 115.419 333.21 120.338 330.953C131.15 339.276 144.41 344.181 158.7 344.181C172.492 344.181 185.332 339.622 195.922 331.813C199.522 333.299 203.311 334.394 207.266 335.053C237.708 340.069 267.275 317.446 274.852 283.316L298.437 177.215C299.024 174.59 299.456 171.964 299.755 169.35C303.721 134.806 283.183 102.999 252.12 97.8713L252.142 97.8602Z" fill="#A7DBAA"/>
<path d="M273.97 166.441C272.463 157.928 268.165 150.096 262.703 143.416C255.691 134.835 246.496 128.278 236.482 124.848C224.019 120.58 210.305 121.172 197.975 128.791C184.493 137.126 177.836 150.119 159.934 149.281C142.032 150.119 135.374 137.126 121.892 128.791C109.563 121.172 95.8481 120.58 83.3855 124.848C73.3711 128.278 64.1764 134.835 57.1641 143.416C51.7027 150.096 47.4045 157.928 45.8979 166.441C43.0177 182.741 48.4015 200.147 52.6444 215.71C56.9869 231.652 59.8561 247.93 64.0657 263.917C70.2139 287.211 86.443 311.353 113.196 310.169C129.735 309.421 143.361 299.913 159.934 300.326C176.506 299.913 190.132 309.421 206.671 310.169C233.425 311.353 249.654 287.211 255.802 263.917C260.011 247.93 262.881 231.652 267.223 215.71C271.466 200.147 276.85 182.741 273.97 166.441Z" fill="#4EAF5D"/>
<path fill-rule="evenodd" clip-rule="evenodd" d="M140.431 248.405C141.945 246.878 144.4 246.878 145.914 248.405C153.661 256.218 166.195 256.218 173.942 248.405C175.456 246.878 177.911 246.878 179.425 248.405C180.939 249.932 180.939 252.408 179.425 253.935C168.65 264.802 151.206 264.802 140.431 253.935C138.917 252.408 138.917 249.932 140.431 248.405Z" fill="#357C3D"/>
<path d="M213.687 212.878C213.687 230.513 203.718 244.808 191.42 244.808C179.123 244.808 169.153 230.513 169.153 212.878C169.153 195.244 179.123 180.949 191.42 180.949C203.718 180.949 213.687 195.244 213.687 212.878Z" fill="white"/>
<path d="M147.151 212.98C147.151 230.614 137.182 244.909 124.884 244.909C112.587 244.909 102.618 230.614 102.618 212.98C102.618 195.345 112.587 181.05 124.884 181.05C137.182 181.05 147.151 195.345 147.151 212.98Z" fill="white"/>
<path d="M203.627 206.6H181.339V208.968C181.339 214.877 182.363 220.339 184.111 224.413C184.983 226.445 186.081 228.24 187.42 229.561C188.769 230.892 190.483 231.848 192.483 231.848C194.484 231.848 196.198 230.892 197.547 229.561C198.885 228.24 199.984 226.445 200.856 224.413C202.603 220.339 203.627 214.877 203.627 208.968V206.6Z" fill="#357C3D"/>
<path d="M137.092 206.701H114.803V209.069C114.803 214.979 115.827 220.441 117.575 224.514C118.447 226.547 119.545 228.342 120.884 229.662C122.233 230.993 123.947 231.949 125.948 231.949C127.948 231.949 129.662 230.993 131.011 229.662C132.35 228.342 133.448 226.547 134.32 224.514C136.068 220.441 137.092 214.979 137.092 209.069V206.701Z" fill="#357C3D"/>
</svg>
