<svg width="331" height="370" viewBox="0 0 331 370" fill="none" xmlns="http://www.w3.org/2000/svg">
<path d="M153.662 75.0029C139.174 75.4817 125.747 80.1664 114.375 87.8946C102.776 81.3063 89.4632 78.2059 75.6826 79.8017L61.0116 81.5001C55.3715 82.1498 49.9826 83.5518 44.9133 85.6035C47.2995 83.2782 49.8798 81.1581 52.6313 79.2432C74.6437 63.9578 105.344 62.8066 130.771 66.3629C138.363 67.423 145.967 69.6001 152.383 74.0341C152.703 74.2506 153.137 74.5812 153.662 75.0029Z" fill="#E8443A"/>
<path d="M287.483 87.0055C283.281 85.2843 278.84 84.0305 274.193 83.2668L259.625 80.8845C244.326 78.3768 229.346 81.7622 216.479 89.4334C206.055 81.7964 193.748 76.7924 180.401 75.379C179.933 75.3334 179.465 75.2878 178.997 75.2423C189.329 68.1068 202.904 66.4084 216.137 66.2716C226.789 66.1577 238.069 66.4882 248.95 68.426C261.109 70.5917 272.789 74.7749 282.573 82.6057C284.297 83.9849 285.93 85.4553 287.483 87.0055Z" fill="#E8443A"/>
<path d="M287.482 87.0055C283.281 85.2844 278.84 84.0305 274.193 83.2668L259.625 80.8846C244.326 78.3769 229.346 81.7622 216.479 89.4334C206.055 81.7964 193.747 76.7925 180.401 75.3791C179.933 75.3335 179.465 75.2879 178.996 75.2423C176.896 75.0599 174.761 74.9688 172.614 74.9688H156.094C155.797 74.9688 155.5 74.9688 155.203 74.9802C154.689 74.9802 154.176 74.9915 153.662 75.0029C139.173 75.4817 125.747 80.1665 114.375 87.8946C102.775 81.3063 89.463 78.2059 75.6824 79.8017L61.0113 81.5001C55.3713 82.1498 49.9823 83.5518 44.9131 85.6035C16.9981 96.8766 -1.17804 127.812 1.1739 161.985C1.37941 165.04 1.74476 168.117 2.29278 171.206L24.2024 295.849C31.2468 335.937 64.7333 363.863 100.755 359.703C107.285 358.951 113.485 357.172 119.25 354.539C131.958 364.228 147.554 369.927 164.348 369.927C172.454 369.927 180.287 368.594 187.639 366.132C194.992 363.67 201.888 360.079 208.122 355.542C212.346 357.264 216.799 358.54 221.457 359.304C257.238 365.14 292.004 338.809 300.921 299.097L328.641 175.617C329.338 172.551 329.84 169.496 330.194 166.453C334.27 131.368 316.379 98.7004 287.482 87.0055Z" fill="#F76D65"/>
<path d="M206.318 10.9549C197.207 21.1908 179.168 45.6405 180.401 75.3792C177.843 75.1056 175.24 74.9688 172.614 74.9688H156.094C155.797 74.9688 155.5 74.9688 155.203 74.9802C158.663 57.4949 164.28 40.5226 173.996 25.4196C178.346 18.6603 183.449 12.3455 189.386 6.91986C191.476 5.00491 193.69 3.21535 196.008 1.57397C197.595 0.456914 199.662 0.274538 201.42 1.10663L204.582 2.61123C206.558 3.5459 207.654 5.48365 207.654 7.45558C207.654 8.68662 207.231 9.92906 206.318 10.9549Z" fill="#E8443A"/>
<path d="M260.835 100.433L248.059 98.3471C234.644 96.1586 221.514 99.1222 210.234 105.836C199.342 97.8683 186.121 93.1608 171.781 93.1608H157.292C143.774 93.1608 131.238 97.3326 120.723 104.491C110.55 98.7118 98.8821 95.999 86.7913 97.401L73.9356 98.8942C41.7163 102.633 19.0418 134.059 21.4736 169.451C21.6563 172.129 21.976 174.831 22.4555 177.532L41.6592 286.798C47.8359 321.94 77.1895 346.424 108.769 342.776C114.489 342.115 119.924 340.553 124.993 338.251C136.136 346.743 149.803 351.747 164.531 351.747C178.745 351.747 191.978 347.096 202.893 339.129C206.603 340.645 210.508 341.762 214.584 342.434C245.958 347.552 276.431 324.47 284.24 289.648L308.547 181.396C309.152 178.718 309.598 176.039 309.906 173.372C313.993 138.128 292.826 105.676 260.812 100.444L260.835 100.433Z" fill="#FFB3AE"/>
<path d="M283.33 170.404C281.778 161.719 277.348 153.728 271.719 146.912C264.492 138.158 255.016 131.467 244.695 127.968C231.85 123.614 217.716 124.218 205.008 131.992C191.114 140.495 184.252 153.751 165.802 152.896C147.352 153.751 140.49 140.495 126.595 131.992C113.888 124.218 99.7534 123.614 86.9091 127.968C76.588 131.467 67.1117 138.158 59.8846 146.912C54.256 153.728 49.8261 161.719 48.2734 170.404C45.3049 187.035 50.8536 204.794 55.2264 220.672C59.7019 236.937 62.659 253.545 66.9975 269.856C73.3341 293.622 90.0603 318.254 117.633 317.046C134.679 316.282 148.722 306.582 165.802 307.004C182.882 306.582 196.925 316.282 213.971 317.046C241.543 318.254 258.27 293.622 264.606 269.856C268.945 253.545 271.902 236.937 276.377 220.672C280.75 204.794 286.299 187.035 283.33 170.404Z" fill="#F66D65"/>
<path d="M133.217 250.456C145.891 250.456 156.166 235.871 156.166 217.879C156.166 199.887 145.891 185.302 133.217 185.302C120.543 185.302 110.269 199.887 110.269 217.879C110.269 235.871 120.543 250.456 133.217 250.456Z" fill="white"/>
<path d="M134.313 234.806C139.32 234.806 143.378 227.227 143.378 217.879C143.378 208.531 139.32 200.952 134.313 200.952C129.306 200.952 125.248 208.531 125.248 217.879C125.248 227.227 129.306 234.806 134.313 234.806Z" fill="#E8443A"/>
<path d="M198.375 250.456C211.049 250.456 221.323 235.871 221.323 217.879C221.323 199.887 211.049 185.302 198.375 185.302C185.701 185.302 175.426 199.887 175.426 217.879C175.426 235.871 185.701 250.456 198.375 250.456Z" fill="white"/>
<path d="M199.471 234.806C204.477 234.806 208.536 227.228 208.536 217.879C208.536 208.531 204.477 200.953 199.471 200.953C194.464 200.953 190.406 208.531 190.406 217.879C190.406 227.228 194.464 234.806 199.471 234.806Z" fill="#E8443A"/>
<path fill-rule="evenodd" clip-rule="evenodd" d="M180.239 266.818C172.255 258.847 159.337 258.847 151.353 266.818C149.793 268.376 147.262 268.376 145.702 266.818C144.141 265.26 144.141 262.734 145.702 261.176C156.807 250.089 174.785 250.089 185.89 261.176C187.451 262.734 187.451 265.26 185.89 266.818C184.33 268.376 181.799 268.376 180.239 266.818Z" fill="#E8443A"/>
<path fill-rule="evenodd" clip-rule="evenodd" d="M106.941 165.634C108.502 164.076 111.032 164.077 112.593 165.635C141.995 195 189.586 195.001 219.001 165.634C220.561 164.076 223.091 164.076 224.652 165.634C226.212 167.192 226.212 169.718 224.652 171.276C192.117 203.758 139.465 203.759 106.94 171.276C105.38 169.717 105.381 167.191 106.941 165.634Z" fill="#E8443A"/>
</svg>
